<?xml version="1.0" encoding="UTF-8"?>
<svg xmlns="http://www.w3.org/2000/svg" version="1.1" xmlns:xlink="http://www.w3.org/1999/xlink" viewBox="0 0 500 240.8">
  <defs>
    <style>
      .cls-1 {
        fill: #fcb816;
      }

      .cls-2 {
        fill: #fff;
      }

      .cls-3 {
        fill: none;
      }

      .cls-4 {
        fill: #0076bf;
      }

      .cls-5 {
        clip-path: url(#clippath);
      }
    </style>
    <clipPath id="clippath">
      <rect class="cls-3" x="9.7" y="1.1" width="480.6" height="219.5"/>
    </clipPath>
  </defs>
  <!-- Generator: Adobe Illustrator 28.6.0, SVG Export Plug-In . SVG Version: 1.2.0 Build 709)  -->
  <g>
    <g id="Layer_1">
      <g class="cls-5">
        <path class="cls-4" d="M143.3,21.9c-13.9,0-24.7,0-23.9,0h0c-54.3,0-98.4,44.1-98.4,98.4s42.6,98.4,96.9,98.4.3,0,.8,0c.4,0,12.2,0,26.1,0h309c13.9,0,25.3-11.4,25.3-25.3V47.2c0-13.9-11.4-25.3-25.3-25.3H143.3Z"/>
        <path class="cls-2" d="M119.4,12.4c-.8,0,10,0,23.9,0h310.4c13.9,0,25.3,11.4,25.3,25.3v146.3c0,13.9-11.4,25.3-25.3,25.3H144.7c-13.9,0-25.7,0-26.1,0s-.8,0-.8,0c-54.3,0-96.9-44.1-96.9-98.4S65,12.4,119.4,12.4h0M119.4,1.1h0C58.9,1.1,9.7,50.3,9.7,110.8s11.1,56.8,31.3,77.5c20.2,20.6,47.3,32.1,76.3,32.2h.2c.5,0,1.3.1,27.1.1h309c20.2,0,36.6-16.4,36.6-36.6V37.7c0-20.2-16.4-36.6-36.6-36.6H119.4v2.9s0-2.9,0-2.9Z"/>
        <path class="cls-2" d="M123.2,163.7h0c-2.8,0-7.1-.8-17.1-6.7-10.5-6.1-15.8-10.3-19.2-18.7-3.4-8.3-4.6-18.4-4.6-37.2s.7-32.2.7-32.3c0-.2.1-.5.3-.6.2-.1.4-.2.6-.2,19,1.7,31,1.9,36.5,1.9s2.7,0,2.8,0c0,0,1,0,2.8,0,5.5,0,17.6-.2,36.5-1.9.2,0,.5,0,.6.2.2.2.3.4.3.6,0,.1.7,14.2.7,32.3s-1.3,28.9-4.6,37.2c-3.4,8.4-8.7,12.6-19.2,18.7-10.1,5.9-14.3,6.7-17.1,6.7M84.7,69.8c-.2,3.4-.7,15.9-.7,31.4s1.2,28.5,4.5,36.6c3.2,8,8.3,12,18.5,17.9,9.8,5.7,13.8,6.4,16.3,6.4h0c2.4,0,6.5-.7,16.3-6.4,10.2-5.9,15.3-9.9,18.5-17.9,3.3-8.1,4.5-18,4.5-36.6s-.5-28-.7-31.4c-18.5,1.6-30.4,1.9-35.8,1.9s-2.8,0-2.8,0c0,0-.9,0-2.8,0-5.4,0-17.3-.2-35.8-1.9"/>
        <path class="cls-2" d="M153.2,128.4c-4,0-6.7,1.7-9.1,3.2-2,1.2-3.7,2.3-5.9,2.3s-3.9-1.1-5.9-2.3c-2.4-1.5-5.1-3.2-9.1-3.2s-6.7,1.7-9.1,3.2c-2,1.2-3.7,2.3-5.9,2.3s-3.9-1.1-5.9-2.3c-2.4-1.5-5.1-3.2-9.1-3.2s-3.8.5-5.3,1.1c.4,1.7.8,3.3,1.3,4.8,1.2-.6,2.5-1,4-1,2.5,0,4.4,1.2,6.5,2.5,2.3,1.4,4.9,3.1,8.5,3.1s6.2-1.6,8.5-3.1c2.1-1.3,3.9-2.5,6.5-2.5s4.4,1.2,6.5,2.5c2.3,1.4,4.9,3.1,8.5,3.1s6.2-1.6,8.5-3.1c2.1-1.3,3.9-2.5,6.5-2.5s2.8.4,4,1c.5-1.5,1-3.1,1.3-4.8-1.5-.7-3.2-1.1-5.3-1.1"/>
        <path class="cls-2" d="M99.8,124.8c2.3,1.4,4.9,3.1,8.5,3.1s6.2-1.6,8.5-3.1c2.1-1.3,3.9-2.5,6.5-2.5s4.4,1.1,6.5,2.5c2.3,1.4,4.9,3.1,8.5,3.1s6.2-1.6,8.5-3.1c.1,0,.2-.1.3-.2-2-.6-16.4-4.9-16.4-4.9-3.7-1.1-6.6-1.8-7.4-1.8h0c-2,0-14.8,3.9-23.7,6.7.1,0,.2.1.3.2"/>
        <path class="cls-2" d="M153.2,139.4c-4,0-6.7,1.7-9.1,3.2-2,1.3-3.7,2.3-5.9,2.3s-3.9-1.1-5.9-2.3c-2.4-1.5-5.1-3.2-9.1-3.2s-6.7,1.7-9.1,3.2c-2,1.3-3.7,2.3-5.9,2.3s-3.9-1.1-5.9-2.3c-2.4-1.5-5.1-3.2-9.1-3.2s-1.2,0-1.7.1c1,1.9,2.2,3.5,3.6,5,1.6.4,3,1.3,4.6,2.2,2.3,1.4,4.9,3.1,8.5,3.1s6.2-1.6,8.5-3.1c2.1-1.3,3.9-2.5,6.5-2.5s4.4,1.1,6.5,2.5c2.3,1.4,4.9,3.1,8.5,3.1s6.2-1.6,8.5-3.1c1.5-1,2.9-1.8,4.6-2.2,1.4-1.5,2.6-3.1,3.6-5-.5,0-1.1-.1-1.7-.1"/>
        <path class="cls-2" d="M130,153c-1.9-1.3-3.9-2.6-6.7-2.6s-4.2,1.2-5.9,2.4c-1.6,1.1-3.3,2.3-5.9,2.8,2.5,1.3,4.5,2.2,6.1,2.8,1-.5,1.8-1.1,2.6-1.6,1.4-1,2.3-1.5,3.1-1.5,1.3,0,2.3.7,4,1.8.6.4,1.3.8,2,1.3,1.6-.6,3.5-1.5,5.9-2.8-2.1-.5-3.6-1.5-5.2-2.6"/>
        <polygon class="cls-2" points="140.3 75.8 141.1 78.5 143.9 78 142.2 80.3 144.4 82.1 141.5 82.2 141.5 85.1 139.6 82.9 137.3 84.6 137.8 81.8 135.1 81.1 137.6 79.8 136.4 77.2 139 78.3 140.3 75.8"/>
        <polygon class="cls-2" points="128.5 85.3 126.1 83.8 126.8 86.6 124.1 87.5 126.7 88.7 125.8 91.3 128.3 90 129.8 92.4 130.3 89.6 133.2 89.9 131.3 87.8 133.3 85.8 130.5 85.9 130.2 83.1 128.5 85.3"/>
        <polygon class="cls-2" points="148.8 86.9 146.2 85.7 147.2 88.3 144.7 89.6 147.4 90.4 146.8 93.2 149.1 91.6 150.9 93.8 151.1 91 154 91 151.9 89.1 153.7 86.9 150.9 87.3 150.2 84.5 148.8 86.9"/>
        <polygon class="cls-2" points="139.9 92.2 137.2 92.3 139.4 94 138.6 96.6 140.8 95.1 143.1 96.6 142.3 94 144.4 92.3 141.7 92.3 140.8 89.7 139.9 92.2"/>
        <polygon class="cls-2" points="135.2 100.2 132.5 99.4 133.9 101.9 131.5 103.5 134.3 103.9 134.1 106.8 136.2 104.8 138.3 106.8 138.1 103.9 140.9 103.5 138.5 101.9 140 99.4 137.3 100.3 136.2 97.6 135.2 100.2"/>
        <path class="cls-2" d="M123.5,115c3,0,31.8,9.2,32.6,9.5.8.3,3.6,1.4,3.6-1s-3.8-3.5-15-8.8c-11.2-5.3-18.4-9.1-21.2-9.1s-10,3.8-21.2,9.1c-11.2,5.3-15,6.5-15,8.8s2.7,1.2,3.6,1c.8-.2,29.5-9.5,32.5-9.5h0Z"/>
        <path class="cls-2" d="M101.7,170.2s0,0,0,0h0ZM99.8,169.5h0s0,0,0,0Z"/>
        <polygon class="cls-2" points="102 170.5 102 170.5 102 170.5 102 170.5"/>
        <path class="cls-2" d="M255.3,41.9h17.8l29.5,79h-18l-6-17.6h-29.5l-6.2,17.6h-17.6l30-79ZM253.7,90.4h20.4l-9.9-29h-.2l-10.3,29Z"/>
        <polygon class="cls-2" points="307.8 41.9 325.1 41.9 358 94.9 358.2 94.9 358.2 41.9 374.5 41.9 374.5 120.9 357.1 120.9 324.3 68 324.1 68 324.1 120.9 307.8 120.9 307.8 41.9"/>
        <path class="cls-2" d="M451.2,91c0,21.3-12.6,31.7-33.7,31.7s-33.6-10.3-33.6-31.7v-49.1h17.4v49.1c0,8.6,2.2,17.1,16.3,17.1s16.4-5.4,16.4-17.1v-49.1h17.4v49.1Z"/>
        <path class="cls-2" d="M250.5,149.4c-.6-5.9-4.5-8.4-10.2-8.4s-9.2,1.7-9.2,7,6.6,5.8,13.2,7.3c6.6,1.5,13.1,3.8,13.1,11.9s-8.6,12.3-16.1,12.3-17-4.5-17-14.5h5.2c0,6.9,5.8,9.9,12,9.9s10.4-1.6,10.4-7.5-6.6-6.6-13.1-8.1c-6.6-1.4-13.2-3.3-13.2-10.9s7.4-12,14.9-12,14.8,4,15.1,13h-5.2Z"/>
        <path class="cls-2" d="M274.1,137.4h18c8.2,0,12.6,4.5,12.6,12.1s-4.4,12.2-12.6,12.2h-12.5v16.8h-5.5v-41.1ZM279.5,157.1h10.7c6.2,0,9-2.6,9-7.5s-2.8-7.5-9-7.5h-10.7v15.1Z"/>
        <path class="cls-2" d="M338.8,136.4c13.1,0,19.7,10.4,19.7,21.5s-6.6,21.5-19.7,21.5-19.7-10.4-19.7-21.5,6.6-21.5,19.7-21.5M338.8,174.9c10,0,14.2-8.6,14.2-16.9s-4.2-16.9-14.2-16.9-14.2,8.6-14.2,16.9,4.2,16.9,14.2,16.9"/>
        <path class="cls-2" d="M375.2,137.4h19.3c7.7,0,12.5,4.2,12.5,10.8s-2.2,9-7.1,10.4h0c4.8,1,5.8,4.5,6.2,8.6.3,4,.1,8.5,2.4,11.3h-6.1c-1.6-1.7-.7-6.1-1.5-10.1-.6-4-1.6-7.4-6.8-7.4h-13.4v17.6h-5.5v-41.1ZM392,156.4c5.1,0,9.5-1.3,9.5-7.3s-2.2-7-7.3-7h-13.6v14.3h11.4Z"/>
        <polygon class="cls-2" points="432.9 142 419.2 142 419.2 137.4 452.1 137.4 452.1 142 438.4 142 438.4 178.5 432.9 178.5 432.9 142"/>
        <path class="cls-2" d="M122.4,200c-49.2,0-89.2-40-89.2-89.2S73.2,21.5,122.4,21.5s89.2,40,89.2,89.2-40,89.2-89.2,89.2M122.4,38.7c-39.8,0-72.1,32.3-72.1,72.1s32.3,72.1,72.1,72.1,72.1-32.3,72.1-72.1-32.3-72.1-72.1-72.1"/>
        <path class="cls-1" d="M122.4,184.7c-40.7,0-73.9-33.1-73.9-73.9S81.7,37,122.4,37s73.9,33.1,73.9,73.9-33.1,73.9-73.9,73.9M122.4,40.4c-38.9,0-70.5,31.6-70.5,70.5s31.6,70.5,70.5,70.5,70.5-31.6,70.5-70.5-31.6-70.5-70.5-70.5"/>
      </g>
    </g>
  </g>
</svg>