<?xml version="1.0" encoding="UTF-8"?>
<svg xmlns="http://www.w3.org/2000/svg" version="1.1" viewBox="0 0 500 500">
  <defs>
    <style>
      .cls-1 {
        fill-rule: evenodd;
      }

      .cls-1, .cls-2 {
        fill: #a80000;
      }
    </style>
  </defs>
  <!-- Generator: Adobe Illustrator 28.6.0, SVG Export Plug-In . SVG Version: 1.2.0 Build 709)  -->
  <g>
    <g id="Layer_1">
      <g>
        <path class="cls-1" d="M194,144.3c-1.2-1-4.6-5.2-5.8-6.6-5.8-6.4-12.4-12.9-18.9-18.7-6.2-5.4-22.7-17.5-30.3-19.7.2,2.2,1,5.4,1.4,7.6,3.8,22.7,1.8,37-.2,59.6-2,0-4.8-.8-6.8-1.2-2.4-.4-4.8-.6-7-1-10-1.4-37.7-3.2-46.4-1.6.8,1.4,1.4.4,4.2,7.4,2.6,6.2,6.2,20.7,8.2,27.6,2.4,8.5,5.8,18.7,9,26.8.6,1.8,3.2,7.2,3.4,8.5-10.6,1.6-20.5,3.6-30.3,6.2-5,1.4-24.5,6.8-27.9,8.9,10.4.4,18.9,5.4,26.5,9.5,37.5,20.5,86.9,56.9,129.3,26.6,13.1-9.5,20.9-21.5,26.1-36.6.6-1.8,1.6-6,2.2-7,2,4,7.4,8.3,12,9.7.4,0,.8.2,1.2.2l1.4.6c-13.1,2.6-20.7,13.5-14.7,28.6,4.2,10.9,16.9,19.1,19.3,27.2,5.4-11.1,15.3-15.9,19.7-27.4,4.6-11.5,1.2-22.5-10.2-27-1.4-.6-3.4-1-4.6-1.4,2.2-1.2,7.4-1.6,12-7,.8-1,1.8-2.6,2.8-3.4,1.8,10.7,11.8,27,19.1,34.4,3.2,3,5.8,5.8,9.6,8.5,15.7,11.3,33.7,15.1,56.6,9.1,19.1-4.8,34.1-13.3,49.6-21.9,11.6-6.2,29.1-17.7,41.2-21.3,3-.8,4.8-.6,7.8-1-15.1-5.2-26.9-9.1-42.6-12.5-2.2-.4-14.5-2.4-15.5-2.8.2-1.4,2.8-6.4,3.4-8.5,1.2-2.8,2.2-5.6,3.4-8.5,5-14.7,9.2-34.2,13.7-45.7.4-1.4,1-2.8,1.8-4,1.2-2.4,1.8-2.4,2.4-3.4-14.5-1.2-31.9-.4-46.2,1.6-2.8.4-12.4,2.4-13.9,2.2-1.2-14.1-2.4-18.5-2.4-34s1.4-23.5,3.6-33.2c-6.4,1.4-24.7,14.7-30.3,19.5-5.2,4.6-11.2,10.3-15.7,15.5l-6,6.6c-.4.6-1.2,1.2-1.4,1.6-1,1.4-.8,1.2-1.6,1.8-1-1.6-1.8-3.6-2.8-5.2-6.4-12.3-12.9-23.7-19.1-36.4-6.2-13.1-11.2-26.6-13.9-41-.6-2.2-.6-5-1.4-6.8-.4,8.7-.2,17.7-.2,26.2v144.5c0,5.4.4,7-2,11.3-7.6,12.9-25.3,13.3-32.9,0-2.2-4-2.4-5.8-2.4-10.7V68.2c0-4.2.4-9.3,0-13.3l-2.8,12.9c-5,21.3-13.3,36.8-23.5,55.7l-11,20.7ZM116.5,236.9c.4,3.2,10.2,18.1,12.9,21.5,6,6.6,10.8,11.3,19.1,15.5,7.4,3.6,17.5,6.8,26.9,7.4,10.4.6,21.7-1.2,28.3-6.2-9,2-12.8,3.8-23.7,1.8-18.7-3.8-35.9-21.5-40.4-41-7.2-.4-15.9.2-23.1,1h0ZM216.7,260.6c3.8-4,3.8-16.5,2.8-22.3-2.8-14.9-13.7-32.2-24.7-41.5-1.4-1.2-6-5-7.6-5.6-1.2,26,8.4,44.7,23.5,62.8,1,1.2,5.2,6,6,6.6h0ZM279.9,245.7c0,4.8.8,11.7,3.4,14.7,1.6-.8,10.6-12.1,11.4-13.3,3.6-4.4,6.8-9.7,9.6-15.3,6-11.3,9.6-25.4,8.6-40.6-4,1.4-13.9,11.5-16.9,15.5-1.6,2.2-3.2,4.2-4.6,6.4-5.4,8.7-11.4,19.5-11.4,32.6h0ZM287.1,264.6c.8,1.8,5.6,4.6,8.2,5.8,11.4,5.6,23.9,4,34.3-1.6,6-3.2,11-8.3,14.7-13.3,3-3.8,8.6-13.5,9.4-19.3-12.8.2-28.1,4.6-38.3,9.1-8.2,3.8-15.3,8.3-21.9,13.5-2,1.6-5,4-6.4,5.8h0ZM212.9,264.6c-1.6-2.2-10-8.7-12.9-10.7-4.8-3.2-9.8-6-15.3-8.7-10-4.4-25.9-9.1-38.3-9.1,1.6,8.9,9.4,20.9,15.7,26.6,8.8,7.4,18.3,12.5,31.5,10.9,3.8-.4,7.6-1.4,11-3,2.4-1.2,7.4-4.2,8.4-6h0ZM296.2,275.1c6.8,5,17.7,7,28.1,6.2,9.6-.6,19.7-3.6,27.1-7.4,8.8-4.4,13.7-9.3,19.1-15.5,2.6-3,4.8-6.4,7-10.3,1-1.4,6-9.7,5.8-11.3-7.6-.6-15.1-1.4-23.1-1-1.4,7-5.2,13.7-8.4,18.7-3.8,5.6-8.6,10.1-13.3,13.9-4.6,3.6-11.6,7-18.7,8.5-3.8.8-8.2.8-12.4.6-4.4-.4-7.6-1.8-11.2-2.4h0ZM187.6,186c4.8,3.6,9,6.8,12.9,10.7,7.8,7.6,14.9,17.7,19.1,28.2,2.8,6.8,3.8,11.9,4.2,19.9,2.2-5.8,2.8-19.5,2-26.6-1.8-18.5-10.6-37.4-20.9-51.9-1.8-2.4-4.6-6.6-6.4-8.3-5,8.7-9,16.1-11,28h0ZM276.1,244.3c1-22.7,13.9-39.8,29.5-53.3,1.4-1.2,4.8-3.8,6.6-5-.2-4.4-2.6-11.3-4.2-15.1-1-2.8-5.2-11.5-6.6-12.9-2,1.8-4.6,5.6-6.2,8-2,3-3.8,5.8-5.8,8.9-7.6,12.7-13.7,27.4-15.3,42.7-.6,5.8-.4,22.5,2,26.8h0ZM201.2,153.8c1,1.8,2.4,3.6,3.6,5.2,8.2,11.9,17.1,28.8,21.5,42.1v-105l-4.8,15.7c-4.4,12.5-10,24.3-16.5,35.4-1,1.6-3.4,5.2-3.8,6.6h0ZM273.7,200.8c2.6-7.8,7-17.7,11.2-24.8l10.2-16.7c1.4-2,2.8-3.6,3.8-5.6-.4-1.2-3-5.2-3.8-6.6-3.6-6-8-14.1-10.8-20.5-2.2-4.8-10-25.6-10.6-31v105.2ZM69.1,246.9c1.2.6,2.6,1,3.8,1.4,6.6,2.6,18.3,10.1,24.5,13.7,18.1,10.5,40,22.7,61.6,26.2,12.8,2,27.3.6,36.7-5.2-5,.6-6.4,1.8-14.9,2-14.1,0-29.3-3.6-41-10.1-12.8-7-21.9-18.9-29.1-31-.8-1.6-2-4.2-3-5.6-7.4,0-31.3,7-38.5,8.7h0ZM321.1,285l-9.2-.6c-2.8-.4-5.2-1.2-7.8-1.4,9.2,6.2,25.5,7,36.7,5.2,38.6-6.2,76.1-38.2,89.9-41l-9.2-2.8c-7.6-2-21.9-5.4-29.1-6-5.4,11.5-16.1,25.4-26.1,32.8-10.4,7.6-28.9,13.9-45.2,13.9h0ZM149,168.8c6.2,1.8,11.6,3.4,17.1,5.8l11.8,5.4c1.4.6,2.8,1.6,4,2,.8-8.5,3.4-17.3,6.4-25,1-2.4,2.6-5.4,3.2-7.6-.8-1.8-3.4-4-4.8-5.4l-10.2-10.1c-3.8-3.4-24.9-20.7-28.9-22.1.2,2.2.8,4.4,1.2,6.6,2,11.9,2.8,24.3,1.8,36.4-.4,4.6-1.2,9.3-1.6,13.9h0ZM308.6,149.1l5.8,15.3c1.6,5.2,3.4,11.9,3.8,17.7,1.4-.4,5.6-2.8,7.6-3.8,2.6-1.4,5.2-2.6,7.8-3.6,5-2,12.2-4.6,17.5-5.8-.8-12.5-2.4-13.9-2-29.2.2-5,.6-9.9,1.2-14.7.6-4.4,1.6-9.1,2.2-13.1-2.6,1.4-9.4,6.2-11.8,8-8.2,6.2-14.7,11.9-22.1,18.7l-10,10.5ZM360.8,172.3c-.4,1.6,1.2,11.5,1.6,13.9.6,4.8.8,9.7,1.2,14.7.6,7.8.2,15.5-.8,23.1-.2,2-1,5.2-1,6.8h12.2c4,.2,8.4.8,12.2.8.8-2.2,2-5.2,3-7.4,3.2-8.5,5.4-15.7,8-24.1,1.6-5.4,3.2-11.1,4.8-16.5,1-2.8,1.8-5.4,2.8-8.3.8-2.6,2.4-5.2,3.2-7.6-19.7,0-28.1,1.2-47,4.6h0ZM114.1,231.6c4-.2,7.8-.6,11.8-.8,3.8,0,9,.4,12.6,0-3-17.3-2.8-26.8-.8-44.1.6-4.6,1.6-10.1,1.8-14.5-14.3-2.8-31.7-5-47.2-4.6l3.2,7.6c4.2,11.7,8.4,28,12.8,40.8,1,3.4,4.4,13.3,6,15.5h0ZM202.8,250.1c-.6-1.2-1.2-2-2-3-12.8-18.1-19.5-37.2-19.3-60.6-5.2-2.4-10.4-4.6-15.7-6.8-3.6-1.2-14.1-5-17.7-5.2-.4,4.8-1.6,10.1-2.4,14.9-2.2,15.1-3.2,25-.8,40.2.2,2,.2,1.6,2.4,1.8,14.7,1,31.5,5.6,44.4,12.3,2,1,3.8,2,5.6,3,1.6,1,4.2,2.8,5.6,3.4h0ZM318.3,186.6c.8,24.3-6.8,41.7-18.9,60.2-.6,1.2-1.6,2.2-2.2,3.4,1.8-.8,4.2-2.6,6-3.6,10-6.2,23.1-10.5,34.7-12.9,5.6-1.2,11.2-1.6,16.9-2.4,2.2-5,1.8-23.3,1.2-29.4-1-9.5-3-18.3-4.2-27.6-8,1.4-26.5,8.7-33.5,12.3h0Z"/>
        <path class="cls-1" d="M306.6,333.9c-11.8,1.8-20.9,11.5-18.5,25.6,2.2,12.3,12.4,19.7,26.9,17.5,27.9-4.4,23.9-47.9-8.4-43.1h0ZM307.6,337.1c-12.9,2.4-10.8,27-5.4,33.4,2.4,2.6,6.2,4.8,11.6,3.4,8.6-2.2,10-11.5,9.4-21.5-.4-4.6-1.4-8.9-4-11.7-2.4-2.4-6.6-4.6-11.6-3.6h0Z"/>
        <rect class="cls-2" x="97.6" y="385.8" width="304.8" height="3.6"/>
        <rect class="cls-2" x="97.6" y="321.8" width="304.6" height="3.4"/>
        <path class="cls-1" d="M178.5,336.3c6.8,4.4,6.6-5.2,6.4,19.9,0,4.4.2,9.1,0,13.5,0,3.2-1,2.2-5.4,4.2-1.4.8-1.4.6-1.2,2.4l21.1.2c.2-2.8-1.2-2.4-3.4-3.2-2.6-.8-2.2-1.2-2.4-4.2,0-3-.4-10.9.2-13.3,2,3,14.3,15.1,13.3,17.1-.8,1-3,1.2-4.4,1.8v1.6c1,.4,8,0,9.8,0,3.4,0,7.2.6,10.4.2v-2c-1-.4-3.2-1.2-3.8-1.6-.8-.4-2.2-2.2-2.8-3-1.6-2.2-3.4-4.4-5-6.4l-10.6-12.5,6.6-6.4c4.8-4.2,6-6.2,14.1-7.8v-2.4c-2.6-.2-6,.2-9,.2-3.2.2-6.4-.2-9.6,0l.2,2c1.4,1,3.6.4,5.2,1.2-.6,2-5.4,6.6-7,8-1.6,1.8-6,6.8-7.8,7.6v-15.1c1-.6,5-1.4,6.4-1.8v-2.2c-3-.2-7.4.4-10.6.4s-8-.8-11-.4v2Z"/>
        <path class="cls-1" d="M346.8,336.9c8.4,2.6,8,.2,8.2,14.7,0,4,.4,19.5-.8,22.1-2.2.8-3.8,0-6,.6v2.4c1.6.4,6.6-.2,8.6-.2,3,0,5.8.6,9,.4l-.2-2.6c-1.6-.4-4.8,0-6.2-1-1.2-1.6-1.6-24.8-1.4-28.6,1.8,1.2,7,6.2,9,8.3l17.5,17.7c1.4,1.4,2.8,2.8,4.2,4.4,2.2,2.2,1.6,3,6.2,2.4.8-4.4-1.6-37.2-.6-38.6,1.8-1.4,3.2-1.6,5.6-2.4v-2c-2.4-.2-13.7,0-15.3.6l-.2,1.8c6.2,2,6.2-1.4,6.8,10.9.2,5.8.6,11.7.6,17.3-1.4-.6-16.5-16.3-18.9-18.7-3.8-3.8-5.8-6-9.4-9.5-3-3-1.8-2.2-7.2-2.2s-6.2-.2-9.2,0l-.2,2.2Z"/>
        <path class="cls-1" d="M272.9,365c-5-.4-2.8,1.8-8,5.8-8,6.6-21.3,4-21.3-14.7s2.4-16.9,9-18.9c6.2-1.8,11.2,1.4,14.7,5.2,2.2,2.2.8,2.6,5,2.6,0-3-.8-5.2-1.6-7.8-.4-1.6-.2-2-1.8-2.4-5.8-1.6-15.1-2-20.5-.2-19.7,6.2-19.9,37.4,1.2,41.9,5.4,1.2,14.7,1.2,19.7-1.2,1.6-.8,1.8-.8,2.2-2.6.6-1.8,1.2-5.6,1.4-7.6h0Z"/>
        <path class="cls-1" d="M140,365l-3-.2.2,9.5c1.2,1.8,9,3,11.6,3,8.2,0,15.5-4.2,15.5-13.5.2-5-1.8-7.8-4.4-10.1-5.8-4.4-17.5-4.2-17.1-11.7.2-6.2,9.4-7.6,13.1-2,1,1.8,1.4,3.4,2.2,5h3c.2-2.2-.2-5-.4-7.2-.2-1.4,0-2.2-1.2-2.8-3.8-1.8-12.2-2.4-16.7,0-7.8,4-8.6,15.5-1.2,20.7,5.8,4.2,20.9,5.4,16.7,14.1-1.6,3.2-6.2,5.2-11,3.8-4.4-1.2-5.8-4.4-7.4-8.7h0Z"/>
        <path class="cls-1" d="M100.4,337.1c1.8,0,3.8.2,5.2.8,1,1,.2,23.1.2,29.2s.4,4.8-.8,5.6c-1.4,1-3.6.8-5,1.8v2c3-.2,6-.6,9-.4,2.8,0,9.4.8,11.4.4,0-3.4.8-2.2-5.6-3.4v-34.8l5.8-1.6v-2.4c-3.4,0-6.6.4-10.2.2-3.4,0-6.8-.4-10.2-.2l.2,2.8Z"/>
        <path class="cls-2" d="M421.7,331.2c2.4,0,4.6,1,6.2,2.6h0c1.6,1.6,2.6,3.8,2.6,6.4s-1,4.6-2.6,6.4h0c-1.6,1.6-3.8,2.6-6.2,2.6s-4.8-1-6.4-2.6c-1.6-1.8-2.6-4-2.6-6.4s1-4.8,2.6-6.4h0c1.6-1.6,3.8-2.6,6.4-2.6h0ZM426.7,335.1c-1.2-1.4-3-2.2-5-2.2s-4,.8-5.2,2.2h0c-1.4,1.2-2.2,3.2-2.2,5.2s.8,3.8,2.2,5.2c1.2,1.2,3,2,5.2,2s3.8-.8,5-2h0c1.4-1.4,2.2-3.2,2.2-5.2s-.8-4-2.2-5.2h0Z"/>
        <path class="cls-2" d="M426.2,344.5h-2.4l-1.4-2.4c-.1-.2-.2-.3-.3-.5,0-.1-.2-.3-.3-.4-.1-.1-.2-.2-.3-.2-.1,0-.2,0-.4,0h-.6v3.6h-2.1v-9.3h3.3c2.2,0,3.3.8,3.3,2.5s0,.6-.1.9c0,.3-.2.5-.4.7s-.4.4-.6.6c-.3.2-.5.3-.8.4h0c.1,0,.3.1.4.2.1,0,.3.2.4.3.1.1.2.3.3.4.1.1.2.3.3.4l1.7,2.8ZM420.6,336.8v2.6h.9c.4,0,.8-.1,1.1-.4.3-.3.4-.6.4-1,0-.8-.5-1.2-1.4-1.2h-.9Z"/>
        <g>
          <path class="cls-2" d="M156.1,433.8l4.1,1c-.9,3.4-2.4,5.9-4.6,7.7-2.2,1.8-4.9,2.7-8.1,2.7s-6-.7-8.1-2c-2.1-1.4-3.6-3.3-4.7-5.9-1.1-2.6-1.6-5.4-1.6-8.3s.6-6.1,1.8-8.5c1.2-2.4,3-4.2,5.2-5.5,2.3-1.2,4.7-1.9,7.4-1.9s5.6.8,7.7,2.4c2.1,1.6,3.5,3.8,4.4,6.7l-4,1c-.7-2.3-1.7-3.9-3.1-4.9-1.4-1-3.1-1.5-5.1-1.5s-4.3.6-5.9,1.7c-1.6,1.1-2.7,2.7-3.3,4.6-.6,1.9-1,3.9-1,6s.4,4.9,1.1,6.9c.8,2,1.9,3.4,3.5,4.4,1.6,1,3.3,1.5,5.2,1.5s4.2-.7,5.8-2c1.6-1.3,2.6-3.3,3.2-5.9Z"/>
          <path class="cls-2" d="M161.8,444.7l11.8-31h4.4l12.5,31h-4.6l-3.6-9.4h-12.8l-3.4,9.4h-4.3ZM170.7,432h10.4l-3.2-8.6c-1-2.6-1.7-4.8-2.2-6.4-.4,2-.9,4-1.7,5.9l-3.4,9.1Z"/>
          <path class="cls-2" d="M193.7,444.7v-31h4.2l16.1,24.4v-24.4h3.9v31h-4.2l-16.1-24.4v24.4h-3.9Z"/>
          <path class="cls-2" d="M224.5,444.7v-31h11.5c2.3,0,4.2.3,5.6.9,1.4.6,2.5,1.6,3.3,2.9s1.2,2.7,1.2,4.1-.4,2.6-1.1,3.7c-.7,1.2-1.8,2.1-3.2,2.8,1.9.6,3.3,1.5,4.3,2.8,1,1.3,1.5,2.9,1.5,4.7s-.3,2.8-.9,4.1c-.6,1.2-1.4,2.2-2.2,2.9-.9.7-2,1.2-3.4,1.5-1.3.3-3,.5-4.9.5h-11.7ZM228.6,426.7h6.6c1.8,0,3.1-.1,3.9-.4,1-.3,1.8-.8,2.3-1.5.5-.7.8-1.6.8-2.7s-.2-1.9-.7-2.7c-.5-.8-1.2-1.3-2.1-1.6-.9-.3-2.5-.4-4.7-.4h-6.1v9.4ZM228.6,441h7.6c1.3,0,2.2,0,2.8-.1.9-.2,1.7-.5,2.3-.8s1.1-1,1.5-1.7c.4-.8.6-1.6.6-2.6s-.3-2.2-.9-3-1.4-1.5-2.4-1.8c-1-.3-2.5-.5-4.5-.5h-7.1v10.7Z"/>
          <path class="cls-2" d="M253.4,444.7v-31h22.2v3.7h-18.1v9.5h17v3.6h-17v10.6h18.8v3.7h-22.9Z"/>
          <path class="cls-2" d="M281.9,444.7v-31h13.6c2.7,0,4.8.3,6.2.8,1.4.6,2.6,1.5,3.4,3s1.3,3,1.3,4.7-.7,4.1-2.1,5.6c-1.4,1.5-3.6,2.5-6.5,2.9,1.1.5,1.9,1,2.4,1.5,1.2,1.1,2.3,2.5,3.4,4.1l5.3,8.5h-5.1l-4.1-6.5c-1.2-1.9-2.2-3.3-2.9-4.3-.8-1-1.5-1.7-2.1-2.1-.6-.4-1.2-.7-1.9-.8-.5,0-1.2-.1-2.3-.1h-4.7v13.8h-4.1ZM286,427.4h8.7c1.9,0,3.3-.2,4.3-.6s1.8-1,2.4-1.9c.5-.9.8-1.8.8-2.8,0-1.5-.5-2.7-1.6-3.6-1.1-.9-2.7-1.4-5-1.4h-9.7v10.3Z"/>
          <path class="cls-2" d="M312.8,444.7v-31h13.6c2.7,0,4.8.3,6.2.8,1.4.6,2.6,1.5,3.4,3s1.3,3,1.3,4.7-.7,4.1-2.1,5.6c-1.4,1.5-3.6,2.5-6.5,2.9,1.1.5,1.9,1,2.4,1.5,1.2,1.1,2.3,2.5,3.4,4.1l5.3,8.5h-5.1l-4.1-6.5c-1.2-1.9-2.2-3.3-2.9-4.3-.8-1-1.5-1.7-2.1-2.1-.6-.4-1.2-.7-1.9-.8-.5,0-1.2-.1-2.3-.1h-4.7v13.8h-4.1ZM316.9,427.4h8.7c1.9,0,3.3-.2,4.3-.6s1.8-1,2.4-1.9c.5-.9.8-1.8.8-2.8,0-1.5-.5-2.7-1.6-3.6-1.1-.9-2.7-1.4-5-1.4h-9.7v10.3Z"/>
          <path class="cls-2" d="M340.3,444.7l11.8-31h4.4l12.5,31h-4.6l-3.6-9.4h-12.8l-3.4,9.4h-4.3ZM349.2,432h10.4l-3.2-8.6c-1-2.6-1.7-4.8-2.2-6.4-.4,2-.9,4-1.7,5.9l-3.4,9.1Z"/>
        </g>
      </g>
    </g>
  </g>
</svg>