<?xml version="1.0" encoding="UTF-8" standalone="no"?>
<!DOCTYPE svg PUBLIC "-//W3C//DTD SVG 1.1//EN"
 "http://www.w3.org/Graphics/SVG/1.1/DTD/svg11.dtd">
<!-- Generated by graphviz version 2.40.1 (20161225.0304)
 -->
<!-- Title: %0 Pages: 1 -->
<svg width="1398pt" height="1689pt"
 viewBox="0.00 0.00 1398.07 1689.00" xmlns="http://www.w3.org/2000/svg" xmlns:xlink="http://www.w3.org/1999/xlink">
<g id="graph0" class="graph" transform="scale(1 1) rotate(0) translate(144 1545)">
<title>%0</title>
<polygon fill="#ffffff" stroke="transparent" points="-144,144 -144,-1545 1254.0704,-1545 1254.0704,144 -144,144"/>
<!-- accommodations -->
<g id="node1" class="node">
<title>accommodations</title>
<polygon fill="#4477c9" stroke="transparent" points="270.5218,-1087 270.5218,-1345 373.5218,-1345 373.5218,-1087 270.5218,-1087"/>
<polygon fill="#add8e6" stroke="transparent" points="271.0218,-1327 271.0218,-1345 374.0218,-1345 374.0218,-1327 271.0218,-1327"/>
<polygon fill="none" stroke="#000000" points="271.0218,-1327 271.0218,-1345 374.0218,-1345 374.0218,-1327 271.0218,-1327"/>
<text text-anchor="start" x="289.7794" y="-1333.9" font-family="Times,serif" font-weight="bold" font-style="italic" font-size="9.00" fill="#000000"> accommodations </text>
<polygon fill="none" stroke="#000000" points="271.0218,-1307 271.0218,-1327 374.0218,-1327 374.0218,-1307 271.0218,-1307"/>
<text text-anchor="start" x="276.0218" y="-1313.9" font-family="Times,serif" font-size="9.00" fill="#000000">name: String</text>
<polygon fill="none" stroke="#000000" points="271.0218,-1287 271.0218,-1307 374.0218,-1307 374.0218,-1287 271.0218,-1287"/>
<text text-anchor="start" x="276.0218" y="-1293.9" font-family="Times,serif" font-size="9.00" fill="#000000">description: String</text>
<polygon fill="none" stroke="#000000" points="271.0218,-1267 271.0218,-1287 374.0218,-1287 374.0218,-1267 271.0218,-1267"/>
<text text-anchor="start" x="276.0218" y="-1273.9" font-family="Times,serif" font-size="9.00" fill="#000000">price_per_night: Number</text>
<polygon fill="none" stroke="#000000" points="271.0218,-1247 271.0218,-1267 374.0218,-1267 374.0218,-1247 271.0218,-1247"/>
<text text-anchor="start" x="276.0218" y="-1253.9" font-family="Times,serif" font-size="9.00" fill="#000000">location: String</text>
<polygon fill="none" stroke="#000000" points="271.0218,-1227 271.0218,-1247 374.0218,-1247 374.0218,-1227 271.0218,-1227"/>
<text text-anchor="start" x="276.0218" y="-1233.9" font-family="Times,serif" font-size="9.00" fill="#000000">max_occupancy: Number</text>
<polygon fill="none" stroke="#000000" points="271.0218,-1207 271.0218,-1227 374.0218,-1227 374.0218,-1207 271.0218,-1207"/>
<text text-anchor="start" x="275.6611" y="-1213.9" font-family="Times,serif" font-size="9.00" fill="#000000">available_rooms: Number</text>
<polygon fill="none" stroke="#000000" points="271.0218,-1187 271.0218,-1207 374.0218,-1207 374.0218,-1187 271.0218,-1187"/>
<text text-anchor="start" x="276.0218" y="-1193.9" font-family="Times,serif" font-size="9.00" fill="#000000">amenities: Array</text>
<polygon fill="none" stroke="#000000" points="271.0218,-1167 271.0218,-1187 374.0218,-1187 374.0218,-1167 271.0218,-1167"/>
<text text-anchor="start" x="276.0218" y="-1173.9" font-family="Times,serif" font-size="9.00" fill="#000000">photo: String</text>
<polygon fill="none" stroke="#000000" points="271.0218,-1147 271.0218,-1167 374.0218,-1167 374.0218,-1147 271.0218,-1147"/>
<text text-anchor="start" x="276.0218" y="-1153.9" font-family="Times,serif" font-size="9.00" fill="#000000">_id: ObjectId</text>
<polygon fill="none" stroke="#000000" points="271.0218,-1127 271.0218,-1147 374.0218,-1147 374.0218,-1127 271.0218,-1127"/>
<text text-anchor="start" x="276.0218" y="-1133.9" font-family="Times,serif" font-size="9.00" fill="#000000">createdAt: Date</text>
<polygon fill="none" stroke="#000000" points="271.0218,-1107 271.0218,-1127 374.0218,-1127 374.0218,-1107 271.0218,-1107"/>
<text text-anchor="start" x="276.0218" y="-1113.9" font-family="Times,serif" font-size="9.00" fill="#000000">updatedAt: Date</text>
<polygon fill="none" stroke="#000000" points="271.0218,-1087 271.0218,-1107 374.0218,-1107 374.0218,-1087 271.0218,-1087"/>
<text text-anchor="start" x="276.0218" y="-1093.9" font-family="Times,serif" font-size="9.00" fill="#000000">__v: Number</text>
</g>
<!-- bookings -->
<g id="node2" class="node">
<title>bookings</title>
<polygon fill="#4477c9" stroke="transparent" points="977.0704,-1123 977.0704,-1401 1110.0704,-1401 1110.0704,-1123 977.0704,-1123"/>
<polygon fill="#add8e6" stroke="transparent" points="977.5704,-1383 977.5704,-1401 1110.5704,-1401 1110.5704,-1383 977.5704,-1383"/>
<polygon fill="none" stroke="#000000" points="977.5704,-1383 977.5704,-1401 1110.5704,-1401 1110.5704,-1383 977.5704,-1383"/>
<text text-anchor="start" x="1025.3198" y="-1389.9" font-family="Times,serif" font-weight="bold" font-style="italic" font-size="9.00" fill="#000000"> bookings </text>
<polygon fill="none" stroke="#000000" points="977.5704,-1363 977.5704,-1383 1110.5704,-1383 1110.5704,-1363 977.5704,-1363"/>
<text text-anchor="start" x="982.5704" y="-1369.9" font-family="Times,serif" font-size="9.00" fill="#000000">user_id: ObjectId</text>
<polygon fill="none" stroke="#000000" points="977.5704,-1343 977.5704,-1363 1110.5704,-1363 1110.5704,-1343 977.5704,-1343"/>
<text text-anchor="start" x="982.5704" y="-1349.9" font-family="Times,serif" font-size="9.00" fill="#000000">retreat_id: ObjectId</text>
<polygon fill="none" stroke="#000000" points="977.5704,-1323 977.5704,-1343 1110.5704,-1343 1110.5704,-1323 977.5704,-1323"/>
<text text-anchor="start" x="982.5704" y="-1329.9" font-family="Times,serif" font-size="9.00" fill="#000000">accommodation_id: ObjectId</text>
<polygon fill="none" stroke="#000000" points="977.5704,-1303 977.5704,-1323 1110.5704,-1323 1110.5704,-1303 977.5704,-1303"/>
<text text-anchor="start" x="982.5704" y="-1309.9" font-family="Times,serif" font-size="9.00" fill="#000000">no_persons: Number</text>
<polygon fill="none" stroke="#000000" points="977.5704,-1283 977.5704,-1303 1110.5704,-1303 1110.5704,-1283 977.5704,-1283"/>
<text text-anchor="start" x="982.4591" y="-1289.9" font-family="Times,serif" font-size="9.00" fill="#000000">accommodation_amount: Number</text>
<polygon fill="none" stroke="#000000" points="977.5704,-1263 977.5704,-1283 1110.5704,-1283 1110.5704,-1263 977.5704,-1263"/>
<text text-anchor="start" x="982.5704" y="-1269.9" font-family="Times,serif" font-size="9.00" fill="#000000">retreat_amount: Number</text>
<polygon fill="none" stroke="#000000" points="977.5704,-1243 977.5704,-1263 1110.5704,-1263 1110.5704,-1243 977.5704,-1243"/>
<text text-anchor="start" x="982.5704" y="-1249.9" font-family="Times,serif" font-size="9.00" fill="#000000">total_amount: Number</text>
<polygon fill="none" stroke="#000000" points="977.5704,-1223 977.5704,-1243 1110.5704,-1243 1110.5704,-1223 977.5704,-1223"/>
<text text-anchor="start" x="982.5704" y="-1229.9" font-family="Times,serif" font-size="9.00" fill="#000000">status: String</text>
<polygon fill="none" stroke="#000000" points="977.5704,-1203 977.5704,-1223 1110.5704,-1223 1110.5704,-1203 977.5704,-1203"/>
<text text-anchor="start" x="982.5704" y="-1209.9" font-family="Times,serif" font-size="9.00" fill="#000000">booked_on: Date</text>
<polygon fill="none" stroke="#000000" points="977.5704,-1183 977.5704,-1203 1110.5704,-1203 1110.5704,-1183 977.5704,-1183"/>
<text text-anchor="start" x="982.5704" y="-1189.9" font-family="Times,serif" font-size="9.00" fill="#000000">_id: ObjectId</text>
<polygon fill="none" stroke="#000000" points="977.5704,-1163 977.5704,-1183 1110.5704,-1183 1110.5704,-1163 977.5704,-1163"/>
<text text-anchor="start" x="982.5704" y="-1169.9" font-family="Times,serif" font-size="9.00" fill="#000000">createdAt: Date</text>
<polygon fill="none" stroke="#000000" points="977.5704,-1143 977.5704,-1163 1110.5704,-1163 1110.5704,-1143 977.5704,-1143"/>
<text text-anchor="start" x="982.5704" y="-1149.9" font-family="Times,serif" font-size="9.00" fill="#000000">updatedAt: Date</text>
<polygon fill="none" stroke="#000000" points="977.5704,-1123 977.5704,-1143 1110.5704,-1143 1110.5704,-1123 977.5704,-1123"/>
<text text-anchor="start" x="982.5704" y="-1129.9" font-family="Times,serif" font-size="9.00" fill="#000000">__v: Number</text>
</g>
<!-- accommodations&#45;&gt;bookings -->
<g id="edge3" class="edge">
<title>accommodations:8&#45;&gt;bookings:2</title>
<path fill="none" stroke="#000000" stroke-dasharray="5,2" d="M373.5218,-1157C393.7916,-1157 391.3695,-1175.98 409.5218,-1185 574.3771,-1266.9177 631.3109,-1246.3865 809.6566,-1292 884.0818,-1311.0349 900.7496,-1333 977.5704,-1333"/>
<text text-anchor="middle" x="698.226" y="-1286.2" font-family="Times,serif" font-size="14.00" fill="#000000">accommodations&#45;bookings</text>
<text text-anchor="middle" x="972.5171" y="-1337.2" font-family="Times,serif" font-size="14.00" fill="#000000">N</text>
<text text-anchor="middle" x="377.0218" y="-1144.4" font-family="Times,serif" font-size="14.00" fill="#000000">1</text>
</g>
<!-- retreats -->
<g id="node6" class="node">
<title>retreats</title>
<polygon fill="#4477c9" stroke="transparent" points="640.726,-791 640.726,-1189 755.726,-1189 755.726,-791 640.726,-791"/>
<polygon fill="#add8e6" stroke="transparent" points="641.226,-1171 641.226,-1189 756.226,-1189 756.226,-1171 641.226,-1171"/>
<polygon fill="none" stroke="#000000" points="641.226,-1171 641.226,-1189 756.226,-1189 756.226,-1171 641.226,-1171"/>
<text text-anchor="start" x="683.2361" y="-1177.9" font-family="Times,serif" font-weight="bold" font-style="italic" font-size="9.00" fill="#000000"> retreats </text>
<polygon fill="none" stroke="#000000" points="641.226,-1151 641.226,-1171 756.226,-1171 756.226,-1151 641.226,-1151"/>
<text text-anchor="start" x="646.226" y="-1157.9" font-family="Times,serif" font-size="9.00" fill="#000000">title: String</text>
<polygon fill="none" stroke="#000000" points="641.226,-1131 641.226,-1151 756.226,-1151 756.226,-1131 641.226,-1131"/>
<text text-anchor="start" x="646.226" y="-1137.9" font-family="Times,serif" font-size="9.00" fill="#000000">description: String</text>
<polygon fill="none" stroke="#000000" points="641.226,-1111 641.226,-1131 756.226,-1131 756.226,-1111 641.226,-1111"/>
<text text-anchor="start" x="646.226" y="-1117.9" font-family="Times,serif" font-size="9.00" fill="#000000">start_date: Date</text>
<polygon fill="none" stroke="#000000" points="641.226,-1091 641.226,-1111 756.226,-1111 756.226,-1091 641.226,-1091"/>
<text text-anchor="start" x="646.226" y="-1097.9" font-family="Times,serif" font-size="9.00" fill="#000000">end_date: Date</text>
<polygon fill="none" stroke="#000000" points="641.226,-1071 641.226,-1091 756.226,-1091 756.226,-1071 641.226,-1071"/>
<text text-anchor="start" x="646.226" y="-1077.9" font-family="Times,serif" font-size="9.00" fill="#000000">price_per_person: Number</text>
<polygon fill="none" stroke="#000000" points="641.226,-1051 641.226,-1071 756.226,-1071 756.226,-1051 641.226,-1051"/>
<text text-anchor="start" x="646.226" y="-1057.9" font-family="Times,serif" font-size="9.00" fill="#000000">max_participants: Number</text>
<polygon fill="none" stroke="#000000" points="641.226,-1031 641.226,-1051 756.226,-1051 756.226,-1031 641.226,-1031"/>
<text text-anchor="start" x="646.226" y="-1037.9" font-family="Times,serif" font-size="9.00" fill="#000000">address: String</text>
<polygon fill="none" stroke="#000000" points="641.226,-1011 641.226,-1031 756.226,-1031 756.226,-1011 641.226,-1011"/>
<text text-anchor="start" x="646.226" y="-1017.9" font-family="Times,serif" font-size="9.00" fill="#000000">map_location: String</text>
<polygon fill="none" stroke="#000000" points="641.226,-991 641.226,-1011 756.226,-1011 756.226,-991 641.226,-991"/>
<text text-anchor="start" x="646.226" y="-997.9" font-family="Times,serif" font-size="9.00" fill="#000000">meals_info: Array</text>
<polygon fill="none" stroke="#000000" points="641.226,-971 641.226,-991 756.226,-991 756.226,-971 641.226,-971"/>
<text text-anchor="start" x="646.226" y="-977.9" font-family="Times,serif" font-size="9.00" fill="#000000">organizer: String</text>
<polygon fill="none" stroke="#000000" points="641.226,-951 641.226,-971 756.226,-971 756.226,-951 641.226,-951"/>
<text text-anchor="start" x="646.226" y="-957.9" font-family="Times,serif" font-size="9.00" fill="#000000">guests: Array</text>
<polygon fill="none" stroke="#000000" points="641.226,-931 641.226,-951 756.226,-951 756.226,-931 641.226,-931"/>
<text text-anchor="start" x="646.226" y="-937.9" font-family="Times,serif" font-size="9.00" fill="#000000">featuring_events: Array</text>
<polygon fill="none" stroke="#000000" points="641.226,-911 641.226,-931 756.226,-931 756.226,-911 641.226,-911"/>
<text text-anchor="start" x="646.1147" y="-917.9" font-family="Times,serif" font-size="9.00" fill="#000000">accommodation_id: ObjectId</text>
<polygon fill="none" stroke="#000000" points="641.226,-891 641.226,-911 756.226,-911 756.226,-891 641.226,-891"/>
<text text-anchor="start" x="646.226" y="-897.9" font-family="Times,serif" font-size="9.00" fill="#000000">instructor_id: ObjectId</text>
<polygon fill="none" stroke="#000000" points="641.226,-871 641.226,-891 756.226,-891 756.226,-871 641.226,-871"/>
<text text-anchor="start" x="646.226" y="-877.9" font-family="Times,serif" font-size="9.00" fill="#000000">photo: String</text>
<polygon fill="none" stroke="#000000" points="641.226,-851 641.226,-871 756.226,-871 756.226,-851 641.226,-851"/>
<text text-anchor="start" x="646.226" y="-857.9" font-family="Times,serif" font-size="9.00" fill="#000000">_id: ObjectId</text>
<polygon fill="none" stroke="#000000" points="641.226,-831 641.226,-851 756.226,-851 756.226,-831 641.226,-831"/>
<text text-anchor="start" x="646.226" y="-837.9" font-family="Times,serif" font-size="9.00" fill="#000000">createdAt: Date</text>
<polygon fill="none" stroke="#000000" points="641.226,-811 641.226,-831 756.226,-831 756.226,-811 641.226,-811"/>
<text text-anchor="start" x="646.226" y="-817.9" font-family="Times,serif" font-size="9.00" fill="#000000">updatedAt: Date</text>
<polygon fill="none" stroke="#000000" points="641.226,-791 641.226,-811 756.226,-811 756.226,-791 641.226,-791"/>
<text text-anchor="start" x="646.226" y="-797.9" font-family="Times,serif" font-size="9.00" fill="#000000">__v: Number</text>
</g>
<!-- accommodations&#45;&gt;retreats -->
<g id="edge10" class="edge">
<title>accommodations:8&#45;&gt;retreats:12</title>
<path fill="none" stroke="#000000" stroke-dasharray="5,2" d="M373.5218,-1157C532.134,-1157 482.6138,-921 641.226,-921"/>
<text text-anchor="middle" x="498.1586" y="-1154.2" font-family="Times,serif" font-size="14.00" fill="#000000">accommodations&#45;retreats</text>
<text text-anchor="middle" x="636.1727" y="-925.2" font-family="Times,serif" font-size="14.00" fill="#000000">N</text>
<text text-anchor="middle" x="377.0218" y="-1161.2" font-family="Times,serif" font-size="14.00" fill="#000000">1</text>
</g>
<!-- enrollments -->
<g id="node3" class="node">
<title>enrollments</title>
<polygon fill="#4477c9" stroke="transparent" points="997.0704,0 997.0704,-238 1090.0704,-238 1090.0704,0 997.0704,0"/>
<polygon fill="#add8e6" stroke="transparent" points="997.5704,-220 997.5704,-238 1090.5704,-238 1090.5704,-220 997.5704,-220"/>
<polygon fill="none" stroke="#000000" points="997.5704,-220 997.5704,-238 1090.5704,-238 1090.5704,-220 997.5704,-220"/>
<text text-anchor="start" x="1020.575" y="-226.9" font-family="Times,serif" font-weight="bold" font-style="italic" font-size="9.00" fill="#000000"> enrollments </text>
<polygon fill="none" stroke="#000000" points="997.5704,-200 997.5704,-220 1090.5704,-220 1090.5704,-200 997.5704,-200"/>
<text text-anchor="start" x="1002.5704" y="-206.9" font-family="Times,serif" font-size="9.00" fill="#000000">user_id: ObjectId</text>
<polygon fill="none" stroke="#000000" points="997.5704,-180 997.5704,-200 1090.5704,-200 1090.5704,-180 997.5704,-180"/>
<text text-anchor="start" x="1002.4549" y="-186.9" font-family="Times,serif" font-size="9.00" fill="#000000">workshop_id: ObjectId</text>
<polygon fill="none" stroke="#000000" points="997.5704,-160 997.5704,-180 1090.5704,-180 1090.5704,-160 997.5704,-160"/>
<text text-anchor="start" x="1002.5704" y="-166.9" font-family="Times,serif" font-size="9.00" fill="#000000">status: String</text>
<polygon fill="none" stroke="#000000" points="997.5704,-140 997.5704,-160 1090.5704,-160 1090.5704,-140 997.5704,-140"/>
<text text-anchor="start" x="1002.5704" y="-146.9" font-family="Times,serif" font-size="9.00" fill="#000000">enrolled_at: Date</text>
<polygon fill="none" stroke="#000000" points="997.5704,-120 997.5704,-140 1090.5704,-140 1090.5704,-120 997.5704,-120"/>
<text text-anchor="start" x="1002.5704" y="-126.9" font-family="Times,serif" font-size="9.00" fill="#000000">completed_at: Date</text>
<polygon fill="none" stroke="#000000" points="997.5704,-100 997.5704,-120 1090.5704,-120 1090.5704,-100 997.5704,-100"/>
<text text-anchor="start" x="1002.5704" y="-106.9" font-family="Times,serif" font-size="9.00" fill="#000000">total_price: Number</text>
<polygon fill="none" stroke="#000000" points="997.5704,-80 997.5704,-100 1090.5704,-100 1090.5704,-80 997.5704,-80"/>
<text text-anchor="start" x="1002.5704" y="-86.9" font-family="Times,serif" font-size="9.00" fill="#000000">payment_status: String</text>
<polygon fill="none" stroke="#000000" points="997.5704,-60 997.5704,-80 1090.5704,-80 1090.5704,-60 997.5704,-60"/>
<text text-anchor="start" x="1002.5704" y="-66.9" font-family="Times,serif" font-size="9.00" fill="#000000">_id: ObjectId</text>
<polygon fill="none" stroke="#000000" points="997.5704,-40 997.5704,-60 1090.5704,-60 1090.5704,-40 997.5704,-40"/>
<text text-anchor="start" x="1002.5704" y="-46.9" font-family="Times,serif" font-size="9.00" fill="#000000">createdAt: Date</text>
<polygon fill="none" stroke="#000000" points="997.5704,-20 997.5704,-40 1090.5704,-40 1090.5704,-20 997.5704,-20"/>
<text text-anchor="start" x="1002.5704" y="-26.9" font-family="Times,serif" font-size="9.00" fill="#000000">updatedAt: Date</text>
<polygon fill="none" stroke="#000000" points="997.5704,0 997.5704,-20 1090.5704,-20 1090.5704,0 997.5704,0"/>
<text text-anchor="start" x="1002.5704" y="-6.9" font-family="Times,serif" font-size="9.00" fill="#000000">__v: Number</text>
</g>
<!-- instructors -->
<g id="node4" class="node">
<title>instructors</title>
<polygon fill="#4477c9" stroke="transparent" points="279.5218,-791 279.5218,-1009 364.5218,-1009 364.5218,-791 279.5218,-791"/>
<polygon fill="#add8e6" stroke="transparent" points="280.0218,-991 280.0218,-1009 365.0218,-1009 365.0218,-991 280.0218,-991"/>
<polygon fill="none" stroke="#000000" points="280.0218,-991 280.0218,-1009 365.0218,-1009 365.0218,-991 280.0218,-991"/>
<text text-anchor="start" x="301.2764" y="-997.9" font-family="Times,serif" font-weight="bold" font-style="italic" font-size="9.00" fill="#000000"> instructors </text>
<polygon fill="none" stroke="#000000" points="280.0218,-971 280.0218,-991 365.0218,-991 365.0218,-971 280.0218,-971"/>
<text text-anchor="start" x="285.0218" y="-977.9" font-family="Times,serif" font-size="9.00" fill="#000000">user_id: ObjectId</text>
<polygon fill="none" stroke="#000000" points="280.0218,-951 280.0218,-971 365.0218,-971 365.0218,-951 280.0218,-951"/>
<text text-anchor="start" x="285.0218" y="-957.9" font-family="Times,serif" font-size="9.00" fill="#000000">name: String</text>
<polygon fill="none" stroke="#000000" points="280.0218,-931 280.0218,-951 365.0218,-951 365.0218,-931 280.0218,-931"/>
<text text-anchor="start" x="285.0218" y="-937.9" font-family="Times,serif" font-size="9.00" fill="#000000">bio: String</text>
<polygon fill="none" stroke="#000000" points="280.0218,-911 280.0218,-931 365.0218,-931 365.0218,-911 280.0218,-911"/>
<text text-anchor="start" x="284.9135" y="-917.9" font-family="Times,serif" font-size="9.00" fill="#000000">specialization: Array</text>
<polygon fill="none" stroke="#000000" points="280.0218,-891 280.0218,-911 365.0218,-911 365.0218,-891 280.0218,-891"/>
<text text-anchor="start" x="285.0218" y="-897.9" font-family="Times,serif" font-size="9.00" fill="#000000">experience: Number</text>
<polygon fill="none" stroke="#000000" points="280.0218,-871 280.0218,-891 365.0218,-891 365.0218,-871 280.0218,-871"/>
<text text-anchor="start" x="285.0218" y="-877.9" font-family="Times,serif" font-size="9.00" fill="#000000">availability: String</text>
<polygon fill="none" stroke="#000000" points="280.0218,-851 280.0218,-871 365.0218,-871 365.0218,-851 280.0218,-851"/>
<text text-anchor="start" x="285.0218" y="-857.9" font-family="Times,serif" font-size="9.00" fill="#000000">_id: ObjectId</text>
<polygon fill="none" stroke="#000000" points="280.0218,-831 280.0218,-851 365.0218,-851 365.0218,-831 280.0218,-831"/>
<text text-anchor="start" x="285.0218" y="-837.9" font-family="Times,serif" font-size="9.00" fill="#000000">createdAt: Date</text>
<polygon fill="none" stroke="#000000" points="280.0218,-811 280.0218,-831 365.0218,-831 365.0218,-811 280.0218,-811"/>
<text text-anchor="start" x="285.0218" y="-817.9" font-family="Times,serif" font-size="9.00" fill="#000000">updatedAt: Date</text>
<polygon fill="none" stroke="#000000" points="280.0218,-791 280.0218,-811 365.0218,-811 365.0218,-791 280.0218,-791"/>
<text text-anchor="start" x="285.0218" y="-797.9" font-family="Times,serif" font-size="9.00" fill="#000000">__v: Number</text>
</g>
<!-- instructors&#45;&gt;retreats -->
<g id="edge11" class="edge">
<title>instructors:6&#45;&gt;retreats:13</title>
<path fill="none" stroke="#000000" stroke-dasharray="5,2" d="M365.0218,-861C489.0598,-861 517.188,-901 641.226,-901"/>
<text text-anchor="middle" x="498.1586" y="-901.2" font-family="Times,serif" font-size="14.00" fill="#000000">instructors&#45;retreats</text>
<text text-anchor="middle" x="636.1727" y="-905.2" font-family="Times,serif" font-size="14.00" fill="#000000">N</text>
<text text-anchor="middle" x="368.5218" y="-848.4" font-family="Times,serif" font-size="14.00" fill="#000000">1</text>
</g>
<!-- workshops -->
<g id="node8" class="node">
<title>workshops</title>
<polygon fill="#4477c9" stroke="transparent" points="649.726,-235 649.726,-573 746.726,-573 746.726,-235 649.726,-235"/>
<polygon fill="#add8e6" stroke="transparent" points="650.226,-555 650.226,-573 747.226,-573 747.226,-555 650.226,-555"/>
<polygon fill="none" stroke="#000000" points="650.226,-555 650.226,-573 747.226,-573 747.226,-555 650.226,-555"/>
<text text-anchor="start" x="676.9793" y="-561.9" font-family="Times,serif" font-weight="bold" font-style="italic" font-size="9.00" fill="#000000"> workshops </text>
<polygon fill="none" stroke="#000000" points="650.226,-535 650.226,-555 747.226,-555 747.226,-535 650.226,-535"/>
<text text-anchor="start" x="655.226" y="-541.9" font-family="Times,serif" font-size="9.00" fill="#000000">title: String</text>
<polygon fill="none" stroke="#000000" points="650.226,-515 650.226,-535 747.226,-535 747.226,-515 650.226,-515"/>
<text text-anchor="start" x="655.226" y="-521.9" font-family="Times,serif" font-size="9.00" fill="#000000">description: String</text>
<polygon fill="none" stroke="#000000" points="650.226,-495 650.226,-515 747.226,-515 747.226,-495 650.226,-495"/>
<text text-anchor="start" x="655.226" y="-501.9" font-family="Times,serif" font-size="9.00" fill="#000000">difficulty_level: String</text>
<polygon fill="none" stroke="#000000" points="650.226,-475 650.226,-495 747.226,-495 747.226,-475 650.226,-475"/>
<text text-anchor="start" x="655.226" y="-481.9" font-family="Times,serif" font-size="9.00" fill="#000000">price: Number</text>
<polygon fill="none" stroke="#000000" points="650.226,-455 650.226,-475 747.226,-475 747.226,-455 650.226,-455"/>
<text text-anchor="start" x="655.1134" y="-461.9" font-family="Times,serif" font-size="9.00" fill="#000000">discount_price: Number</text>
<polygon fill="none" stroke="#000000" points="650.226,-435 650.226,-455 747.226,-455 747.226,-435 650.226,-435"/>
<text text-anchor="start" x="655.226" y="-441.9" font-family="Times,serif" font-size="9.00" fill="#000000">classroom_info: String</text>
<polygon fill="none" stroke="#000000" points="650.226,-415 650.226,-435 747.226,-435 747.226,-415 650.226,-415"/>
<text text-anchor="start" x="655.226" y="-421.9" font-family="Times,serif" font-size="9.00" fill="#000000">address: String</text>
<polygon fill="none" stroke="#000000" points="650.226,-395 650.226,-415 747.226,-415 747.226,-395 650.226,-395"/>
<text text-anchor="start" x="655.226" y="-401.9" font-family="Times,serif" font-size="9.00" fill="#000000">map_location: String</text>
<polygon fill="none" stroke="#000000" points="650.226,-375 650.226,-395 747.226,-395 747.226,-375 650.226,-375"/>
<text text-anchor="start" x="655.226" y="-381.9" font-family="Times,serif" font-size="9.00" fill="#000000">photo: String</text>
<polygon fill="none" stroke="#000000" points="650.226,-355 650.226,-375 747.226,-375 747.226,-355 650.226,-355"/>
<text text-anchor="start" x="655.226" y="-361.9" font-family="Times,serif" font-size="9.00" fill="#000000">instructor_id: ObjectId</text>
<polygon fill="none" stroke="#000000" points="650.226,-335 650.226,-355 747.226,-355 747.226,-335 650.226,-335"/>
<text text-anchor="start" x="655.226" y="-341.9" font-family="Times,serif" font-size="9.00" fill="#000000">category: ObjectId</text>
<polygon fill="none" stroke="#000000" points="650.226,-315 650.226,-335 747.226,-335 747.226,-315 650.226,-315"/>
<text text-anchor="start" x="655.226" y="-321.9" font-family="Times,serif" font-size="9.00" fill="#000000">modules: Array</text>
<polygon fill="none" stroke="#000000" points="650.226,-295 650.226,-315 747.226,-315 747.226,-295 650.226,-295"/>
<text text-anchor="start" x="655.226" y="-301.9" font-family="Times,serif" font-size="9.00" fill="#000000">_id: ObjectId</text>
<polygon fill="none" stroke="#000000" points="650.226,-275 650.226,-295 747.226,-295 747.226,-275 650.226,-275"/>
<text text-anchor="start" x="655.226" y="-281.9" font-family="Times,serif" font-size="9.00" fill="#000000">createdAt: Date</text>
<polygon fill="none" stroke="#000000" points="650.226,-255 650.226,-275 747.226,-275 747.226,-255 650.226,-255"/>
<text text-anchor="start" x="655.226" y="-261.9" font-family="Times,serif" font-size="9.00" fill="#000000">updatedAt: Date</text>
<polygon fill="none" stroke="#000000" points="650.226,-235 650.226,-255 747.226,-255 747.226,-235 650.226,-235"/>
<text text-anchor="start" x="655.226" y="-241.9" font-family="Times,serif" font-size="9.00" fill="#000000">__v: Number</text>
</g>
<!-- instructors&#45;&gt;workshops -->
<g id="edge12" class="edge">
<title>instructors:6&#45;&gt;workshops:9</title>
<path fill="none" stroke="#000000" stroke-dasharray="5,2" d="M365.0218,-861C389.5915,-861 389.4611,-842.386 409.5218,-828.2 487.2441,-773.2385 534.7148,-787.6814 586.7954,-708 629.2045,-643.1156 572.7114,-365 650.226,-365"/>
<text text-anchor="middle" x="498.1586" y="-832.2" font-family="Times,serif" font-size="14.00" fill="#000000">instructors&#45;workshops</text>
<text text-anchor="middle" x="645.1727" y="-352.4" font-family="Times,serif" font-size="14.00" fill="#000000">N</text>
<text text-anchor="middle" x="368.5218" y="-865.2" font-family="Times,serif" font-size="14.00" fill="#000000">1</text>
</g>
<!-- payments -->
<g id="node5" class="node">
<title>payments</title>
<polygon fill="#4477c9" stroke="transparent" points="994.0704,-472 994.0704,-710 1093.0704,-710 1093.0704,-472 994.0704,-472"/>
<polygon fill="#add8e6" stroke="transparent" points="994.5704,-692 994.5704,-710 1093.5704,-710 1093.5704,-692 994.5704,-692"/>
<polygon fill="none" stroke="#000000" points="994.5704,-692 994.5704,-710 1093.5704,-710 1093.5704,-692 994.5704,-692"/>
<text text-anchor="start" x="1024.5742" y="-698.9" font-family="Times,serif" font-weight="bold" font-style="italic" font-size="9.00" fill="#000000"> payments </text>
<polygon fill="none" stroke="#000000" points="994.5704,-672 994.5704,-692 1093.5704,-692 1093.5704,-672 994.5704,-672"/>
<text text-anchor="start" x="999.5704" y="-678.9" font-family="Times,serif" font-size="9.00" fill="#000000">user_id: ObjectId</text>
<polygon fill="none" stroke="#000000" points="994.5704,-652 994.5704,-672 1093.5704,-672 1093.5704,-652 994.5704,-652"/>
<text text-anchor="start" x="999.5704" y="-658.9" font-family="Times,serif" font-size="9.00" fill="#000000">retreat_id: ObjectId</text>
<polygon fill="none" stroke="#000000" points="994.5704,-632 994.5704,-652 1093.5704,-652 1093.5704,-632 994.5704,-632"/>
<text text-anchor="start" x="999.5704" y="-638.9" font-family="Times,serif" font-size="9.00" fill="#000000">workshop_id: ObjectId</text>
<polygon fill="none" stroke="#000000" points="994.5704,-612 994.5704,-632 1093.5704,-632 1093.5704,-612 994.5704,-612"/>
<text text-anchor="start" x="999.5704" y="-618.9" font-family="Times,serif" font-size="9.00" fill="#000000">amount: Number</text>
<polygon fill="none" stroke="#000000" points="994.5704,-592 994.5704,-612 1093.5704,-612 1093.5704,-592 994.5704,-592"/>
<text text-anchor="start" x="999.5704" y="-598.9" font-family="Times,serif" font-size="9.00" fill="#000000">payment_date: Date</text>
<polygon fill="none" stroke="#000000" points="994.5704,-572 994.5704,-592 1093.5704,-592 1093.5704,-572 994.5704,-572"/>
<text text-anchor="start" x="999.4493" y="-578.9" font-family="Times,serif" font-size="9.00" fill="#000000">payment_method: String</text>
<polygon fill="none" stroke="#000000" points="994.5704,-552 994.5704,-572 1093.5704,-572 1093.5704,-552 994.5704,-552"/>
<text text-anchor="start" x="999.5704" y="-558.9" font-family="Times,serif" font-size="9.00" fill="#000000">status: String</text>
<polygon fill="none" stroke="#000000" points="994.5704,-532 994.5704,-552 1093.5704,-552 1093.5704,-532 994.5704,-532"/>
<text text-anchor="start" x="999.5704" y="-538.9" font-family="Times,serif" font-size="9.00" fill="#000000">_id: ObjectId</text>
<polygon fill="none" stroke="#000000" points="994.5704,-512 994.5704,-532 1093.5704,-532 1093.5704,-512 994.5704,-512"/>
<text text-anchor="start" x="999.5704" y="-518.9" font-family="Times,serif" font-size="9.00" fill="#000000">createdAt: Date</text>
<polygon fill="none" stroke="#000000" points="994.5704,-492 994.5704,-512 1093.5704,-512 1093.5704,-492 994.5704,-492"/>
<text text-anchor="start" x="999.5704" y="-498.9" font-family="Times,serif" font-size="9.00" fill="#000000">updatedAt: Date</text>
<polygon fill="none" stroke="#000000" points="994.5704,-472 994.5704,-492 1093.5704,-492 1093.5704,-472 994.5704,-472"/>
<text text-anchor="start" x="999.5704" y="-478.9" font-family="Times,serif" font-size="9.00" fill="#000000">__v: Number</text>
</g>
<!-- retreats&#45;&gt;bookings -->
<g id="edge2" class="edge">
<title>retreats:15&#45;&gt;bookings:1</title>
<path fill="none" stroke="#000000" stroke-dasharray="5,2" d="M756.226,-861C952.1486,-861 863.7717,-1081.1706 941.0704,-1261.2 958.3932,-1301.545 933.6637,-1353 977.5704,-1353"/>
<text text-anchor="middle" x="875.3635" y="-1265.2" font-family="Times,serif" font-size="14.00" fill="#000000">retreats&#45;bookings</text>
<text text-anchor="middle" x="972.5171" y="-1357.2" font-family="Times,serif" font-size="14.00" fill="#000000">N</text>
<text text-anchor="middle" x="759.726" y="-848.4" font-family="Times,serif" font-size="14.00" fill="#000000">1</text>
</g>
<!-- retreats&#45;&gt;payments -->
<g id="edge8" class="edge">
<title>retreats:15&#45;&gt;payments:1</title>
<path fill="none" stroke="#000000" stroke-dasharray="5,2" d="M756.226,-861C780.9575,-861 923.3331,-754.2348 941.0704,-737 970.4359,-708.4665 953.6254,-662 994.5704,-662"/>
<text text-anchor="middle" x="875.3635" y="-835.2" font-family="Times,serif" font-size="14.00" fill="#000000">retreats&#45;payments</text>
<text text-anchor="middle" x="989.5171" y="-666.2" font-family="Times,serif" font-size="14.00" fill="#000000">N</text>
<text text-anchor="middle" x="759.726" y="-865.2" font-family="Times,serif" font-size="14.00" fill="#000000">1</text>
</g>
<!-- users -->
<g id="node7" class="node">
<title>users</title>
<polygon fill="#4477c9" stroke="transparent" points="0,-761 0,-1099 106,-1099 106,-761 0,-761"/>
<polygon fill="#add8e6" stroke="transparent" points="0,-1081 0,-1099 106,-1099 106,-1081 0,-1081"/>
<polygon fill="none" stroke="#000000" points="0,-1081 0,-1099 106,-1099 106,-1081 0,-1081"/>
<text text-anchor="start" x="41.5043" y="-1087.9" font-family="Times,serif" font-weight="bold" font-style="italic" font-size="9.00" fill="#000000"> users </text>
<polygon fill="none" stroke="#000000" points="0,-1061 0,-1081 106,-1081 106,-1061 0,-1061"/>
<text text-anchor="start" x="5" y="-1067.9" font-family="Times,serif" font-size="9.00" fill="#000000">name: String</text>
<polygon fill="none" stroke="#000000" points="0,-1041 0,-1061 106,-1061 106,-1041 0,-1041"/>
<text text-anchor="start" x="5" y="-1047.9" font-family="Times,serif" font-size="9.00" fill="#000000">email: String</text>
<polygon fill="none" stroke="#000000" points="0,-1021 0,-1041 106,-1041 106,-1021 0,-1021"/>
<text text-anchor="start" x="5" y="-1027.9" font-family="Times,serif" font-size="9.00" fill="#000000">password: String</text>
<polygon fill="none" stroke="#000000" points="0,-1001 0,-1021 106,-1021 106,-1001 0,-1001"/>
<text text-anchor="start" x="5" y="-1007.9" font-family="Times,serif" font-size="9.00" fill="#000000">photo: String</text>
<polygon fill="none" stroke="#000000" points="0,-981 0,-1001 106,-1001 106,-981 0,-981"/>
<text text-anchor="start" x="5" y="-987.9" font-family="Times,serif" font-size="9.00" fill="#000000">role: String</text>
<polygon fill="none" stroke="#000000" points="0,-961 0,-981 106,-981 106,-961 0,-961"/>
<text text-anchor="start" x="5" y="-967.9" font-family="Times,serif" font-size="9.00" fill="#000000">dob: Date</text>
<polygon fill="none" stroke="#000000" points="0,-941 0,-961 106,-961 106,-941 0,-941"/>
<text text-anchor="start" x="5" y="-947.9" font-family="Times,serif" font-size="9.00" fill="#000000">gender: String</text>
<polygon fill="none" stroke="#000000" points="0,-921 0,-941 106,-941 106,-921 0,-921"/>
<text text-anchor="start" x="4.8887" y="-927.9" font-family="Times,serif" font-size="9.00" fill="#000000">medical_conditions: Array</text>
<polygon fill="none" stroke="#000000" points="0,-901 0,-921 106,-921 106,-901 0,-901"/>
<text text-anchor="start" x="5" y="-907.9" font-family="Times,serif" font-size="9.00" fill="#000000">status: String</text>
<polygon fill="none" stroke="#000000" points="0,-881 0,-901 106,-901 106,-881 0,-881"/>
<text text-anchor="start" x="5" y="-887.9" font-family="Times,serif" font-size="9.00" fill="#000000">enrolled_courses: Array</text>
<polygon fill="none" stroke="#000000" points="0,-861 0,-881 106,-881 106,-861 0,-861"/>
<text text-anchor="start" x="5" y="-867.9" font-family="Times,serif" font-size="9.00" fill="#000000">booked_retreats: Array</text>
<polygon fill="none" stroke="#000000" points="0,-841 0,-861 106,-861 106,-841 0,-841"/>
<text text-anchor="start" x="5" y="-847.9" font-family="Times,serif" font-size="9.00" fill="#000000">payments: Array</text>
<polygon fill="none" stroke="#000000" points="0,-821 0,-841 106,-841 106,-821 0,-821"/>
<text text-anchor="start" x="5" y="-827.9" font-family="Times,serif" font-size="9.00" fill="#000000">_id: ObjectId</text>
<polygon fill="none" stroke="#000000" points="0,-801 0,-821 106,-821 106,-801 0,-801"/>
<text text-anchor="start" x="5" y="-807.9" font-family="Times,serif" font-size="9.00" fill="#000000">createdAt: Date</text>
<polygon fill="none" stroke="#000000" points="0,-781 0,-801 106,-801 106,-781 0,-781"/>
<text text-anchor="start" x="5" y="-787.9" font-family="Times,serif" font-size="9.00" fill="#000000">updatedAt: Date</text>
<polygon fill="none" stroke="#000000" points="0,-761 0,-781 106,-781 106,-761 0,-761"/>
<text text-anchor="start" x="5" y="-767.9" font-family="Times,serif" font-size="9.00" fill="#000000">__v: Number</text>
</g>
<!-- users&#45;&gt;bookings -->
<g id="edge1" class="edge">
<title>users:12&#45;&gt;bookings:0</title>
<path fill="none" stroke="#000000" stroke-dasharray="5,2" d="M106,-831C144.3982,-831 131.8464,-962.9686 142,-1000 189.2554,-1172.347 125.3589,-1276.768 270.5218,-1381 307.7067,-1407.7 327.745,-1381.3031 373.5218,-1381 642.0055,-1379.2222 709.0808,-1373 977.5704,-1373"/>
<text text-anchor="middle" x="498.1586" y="-1384.2" font-family="Times,serif" font-size="14.00" fill="#000000">users&#45;bookings</text>
<text text-anchor="middle" x="972.5171" y="-1377.2" font-family="Times,serif" font-size="14.00" fill="#000000">N</text>
<text text-anchor="middle" x="109.5" y="-818.4" font-family="Times,serif" font-size="14.00" fill="#000000">1</text>
</g>
<!-- users&#45;&gt;enrollments -->
<g id="edge4" class="edge">
<title>users:12&#45;&gt;enrollments:0</title>
<path fill="none" stroke="#000000" stroke-dasharray="5,2" d="M106,-831C140.1353,-831 244.5548,-261.1571 270.5218,-239 453.7448,-82.6592 568.9907,-193.644 809.6566,-184 868.0159,-181.6614 884.017,-171.5025 941.0704,-184 968.0725,-189.9148 969.9281,-210 997.5704,-210"/>
<text text-anchor="middle" x="498.1586" y="-169.2" font-family="Times,serif" font-size="14.00" fill="#000000">users&#45;enrollments</text>
<text text-anchor="middle" x="992.5171" y="-197.4" font-family="Times,serif" font-size="14.00" fill="#000000">N</text>
<text text-anchor="middle" x="109.5" y="-835.2" font-family="Times,serif" font-size="14.00" fill="#000000">1</text>
</g>
<!-- users&#45;&gt;instructors -->
<g id="edge6" class="edge">
<title>users:12&#45;&gt;instructors:0</title>
<path fill="none" stroke="#000000" stroke-dasharray="5,2" d="M106,-831C208.1097,-831 177.9121,-981 280.0218,-981"/>
<text text-anchor="middle" x="188.2609" y="-969.2" font-family="Times,serif" font-size="14.00" fill="#000000">users&#45;instructors</text>
<text text-anchor="middle" x="274.9685" y="-968.4" font-family="Times,serif" font-size="14.00" fill="#000000">N</text>
<text text-anchor="middle" x="102.5" y="-835.2" font-family="Times,serif" font-size="14.00" fill="#000000">1</text>
</g>
<!-- users&#45;&gt;payments -->
<g id="edge7" class="edge">
<title>users:12&#45;&gt;payments:0</title>
<path fill="none" stroke="#000000" stroke-dasharray="5,2" d="M106,-831C143.9081,-831 372.6744,-684.1047 409.5218,-675.2 486.1055,-656.6924 508.0099,-674.5431 586.7954,-675.2 768.0476,-676.7112 813.3119,-682 994.5704,-682"/>
<text text-anchor="middle" x="498.1586" y="-679.2" font-family="Times,serif" font-size="14.00" fill="#000000">users&#45;payments</text>
<text text-anchor="middle" x="989.5171" y="-686.2" font-family="Times,serif" font-size="14.00" fill="#000000">N</text>
<text text-anchor="middle" x="109.5" y="-835.2" font-family="Times,serif" font-size="14.00" fill="#000000">1</text>
</g>
<!-- workshops&#45;&gt;enrollments -->
<g id="edge5" class="edge">
<title>workshops:12&#45;&gt;enrollments:1</title>
<path fill="none" stroke="#000000" stroke-dasharray="5,2" d="M747.226,-305C869.6681,-305 875.1283,-190 997.5704,-190"/>
<text text-anchor="middle" x="875.3635" y="-295.2" font-family="Times,serif" font-size="14.00" fill="#000000">workshops&#45;enrollments</text>
<text text-anchor="middle" x="992.5171" y="-177.4" font-family="Times,serif" font-size="14.00" fill="#000000">N</text>
<text text-anchor="middle" x="750.726" y="-292.4" font-family="Times,serif" font-size="14.00" fill="#000000">1</text>
</g>
<!-- workshops&#45;&gt;payments -->
<g id="edge9" class="edge">
<title>workshops:12&#45;&gt;payments:2</title>
<path fill="none" stroke="#000000" stroke-dasharray="5,2" d="M747.226,-305C840.1213,-305 901.6751,-642 994.5704,-642"/>
<text text-anchor="middle" x="875.3635" y="-604.2" font-family="Times,serif" font-size="14.00" fill="#000000">workshops&#45;payments</text>
<text text-anchor="middle" x="989.5171" y="-646.2" font-family="Times,serif" font-size="14.00" fill="#000000">N</text>
<text text-anchor="middle" x="750.726" y="-309.2" font-family="Times,serif" font-size="14.00" fill="#000000">1</text>
</g>
<!-- workshopcategories -->
<g id="node9" class="node">
<title>workshopcategories</title>
<polygon fill="#4477c9" stroke="transparent" points="280.0218,-275 280.0218,-413 364.0218,-413 364.0218,-275 280.0218,-275"/>
<polygon fill="#add8e6" stroke="transparent" points="280.0218,-395 280.0218,-413 364.0218,-413 364.0218,-395 280.0218,-395"/>
<polygon fill="none" stroke="#000000" points="280.0218,-395 280.0218,-413 364.0218,-413 364.0218,-395 280.0218,-395"/>
<text text-anchor="start" x="283.7858" y="-401.9" font-family="Times,serif" font-weight="bold" font-style="italic" font-size="9.00" fill="#000000"> workshopcategories </text>
<polygon fill="none" stroke="#000000" points="280.0218,-375 280.0218,-395 364.0218,-395 364.0218,-375 280.0218,-375"/>
<text text-anchor="start" x="285.0218" y="-381.9" font-family="Times,serif" font-size="9.00" fill="#000000">name: String</text>
<polygon fill="none" stroke="#000000" points="280.0218,-355 280.0218,-375 364.0218,-375 364.0218,-355 280.0218,-355"/>
<text text-anchor="start" x="285.0218" y="-361.9" font-family="Times,serif" font-size="9.00" fill="#000000">description: String</text>
<polygon fill="none" stroke="#000000" points="280.0218,-335 280.0218,-355 364.0218,-355 364.0218,-335 280.0218,-335"/>
<text text-anchor="start" x="285.0218" y="-341.9" font-family="Times,serif" font-size="9.00" fill="#000000">_id: ObjectId</text>
<polygon fill="none" stroke="#000000" points="280.0218,-315 280.0218,-335 364.0218,-335 364.0218,-315 280.0218,-315"/>
<text text-anchor="start" x="285.0218" y="-321.9" font-family="Times,serif" font-size="9.00" fill="#000000">createdAt: Date</text>
<polygon fill="none" stroke="#000000" points="280.0218,-295 280.0218,-315 364.0218,-315 364.0218,-295 280.0218,-295"/>
<text text-anchor="start" x="285.0218" y="-301.9" font-family="Times,serif" font-size="9.00" fill="#000000">updatedAt: Date</text>
<polygon fill="none" stroke="#000000" points="280.0218,-275 280.0218,-295 364.0218,-295 364.0218,-275 280.0218,-275"/>
<text text-anchor="start" x="285.0218" y="-281.9" font-family="Times,serif" font-size="9.00" fill="#000000">__v: Number</text>
</g>
<!-- workshopcategories&#45;&gt;workshops -->
<g id="edge13" class="edge">
<title>workshopcategories:2&#45;&gt;workshops:10</title>
<path fill="none" stroke="#000000" stroke-dasharray="5,2" d="M364.0218,-345C491.2237,-345 523.0241,-345 650.226,-345"/>
<text text-anchor="middle" x="498.1586" y="-349.2" font-family="Times,serif" font-size="14.00" fill="#000000">workshopcategories&#45;workshops</text>
<text text-anchor="middle" x="645.1727" y="-332.4" font-family="Times,serif" font-size="14.00" fill="#000000">N</text>
<text text-anchor="middle" x="367.5218" y="-332.4" font-family="Times,serif" font-size="14.00" fill="#000000">1</text>
</g>
</g>
</svg>
