<?xml version="1.0" encoding="UTF-8"?>
<svg id="Layer_1" xmlns="http://www.w3.org/2000/svg" xmlns:xlink="http://www.w3.org/1999/xlink" viewBox="0 0 1920 710.22">
  <defs>
    <style>
      .cls-1 {
        fill: none;
      }

      .cls-2 {
        fill: #9b6763;
      }

      .cls-3 {
        clip-path: url(#clippath);
      }
    </style>
    <clipPath id="clippath">
      <rect class="cls-1" y="29.71" width="1920" height="680.5"/>
    </clipPath>
  </defs>
  <g class="cls-3">
    <path class="cls-2" d="M1650.4,484.34c-103.31,7.88-180.06-44.76-319.17-32.46-78.28,6.92-141.55,61.16-317.89,21.76-147.88-33.04-273.74-49.58-422.6.29-93.07,31.18-187.91,69.25-285.74,61.26-72.88-5.95-141.12-37.18-212.55-52.86-240.28-52.74-293.38,149.74-205.59,236.79,37.04,36.73,90.98,49.66,142.36,58.66,268.25,46.99,547.8,27.75,807.21-55.07,114.18,10.15,230.93,4.48,345.91,10.29,307.69,15.53,546.48,15.77,747.79,16.28v-291.74c-163.44-56.35-179.69,19.16-279.74,26.79Z"/>
  </g>
</svg>