<?xml version="1.0" encoding="UTF-8"?>
<svg xmlns="http://www.w3.org/2000/svg" version="1.1" viewBox="0 0 650 200">
  <defs>
    <style>
      .cls-1, .cls-2 {
        fill: #fff;
      }

      .cls-2 {
        fill-rule: evenodd;
      }
    </style>
  </defs>
  <!-- Generator: Adobe Illustrator 28.6.0, SVG Export Plug-In . SVG Version: 1.2.0 Build 709)  -->
  <g>
    <g id="Layer_1">
      <g id="Layer_1-2" data-name="Layer_1">
        <g id="Layer_1-2">
          <g id="Layer_1-2-2" data-name="Layer_1-2">
            <path class="cls-1" d="M11.5,164.8h8.9v-63.9h-8.9v-4.5h11.9c5.9,0,10.4,1.5,13.4,5.9,0,0,3,3,3,4.5,0-3,3-4.5,4.5-5.9,4.5-4.5,8.9-5.9,16.3-5.9s10.4,0,13.4,3,7.4,4.5,10.4,8.9c3,3,3,7.4,3,11.9v44.6h8.9v4.5h-17.8c-8.9,0-11.9-4.5-11.9-11.9v-37.2c0-5.9,0-10.4-3-13.4,0-3-4.5-4.5-7.4-4.5s-7.4,1.5-8.9,5.9c0,1.5-3,3-3,5.9v52h8.9v4.5H14.5l-3-4.5h0Z"/>
            <path class="cls-1" d="M105.1,164.8h8.9v-63.9h-8.9v-4.5h17.8c8.9,0,11.9,4.5,11.9,11.9v53.5h8.9v4.5h-38.6s0-1.5,0-1.5Z"/>
            <path class="cls-1" d="M152.7,164.8h8.9v-63.9h-8.9v-4.5h11.9c5.9,0,10.4,1.5,13.4,5.9,0,0,3,3,3,4.5,0-1.5,3-4.5,4.5-5.9,4.5-4.5,10.4-5.9,16.3-5.9s8.9,0,11.9,3,3,5.9,3,10.4,0,5.9-3,7.4c-1.5,1.5-4.5,3-7.4,3h-5.9v-20.8c-4.5,0-8.9,1.5-13.4,5.9s-3,4.5-4.5,5.9v52h8.9v4.5h-38.6v-1.5h-.1Z"/>
            <path class="cls-1" d="M271.6,164.8h8.9v-63.9h-8.9v-4.5h17.8c8.9,0,11.9,4.5,11.9,11.9v53.5h8.9v4.5h-38.6v-1.5h0Z"/>
            <path class="cls-1" d="M317.7,191.5h8.9v-92.2h-8.9v-4.5h11.9c5.9,0,10.4,1.5,13.4,5.9,0,0,3,3,3,4.5,0-3,3-4.5,4.5-5.9,4.5-4.5,8.9-5.9,16.3-5.9s10.4,0,14.9,4.5c4.5,3,7.4,7.4,10.4,13.4s4.5,11.9,4.5,20.8-3,20.8-8.9,28.2-13.4,8.9-22.3,8.9-8.9,0-11.9-3c0,0-3-1.5-4.5-3v26.8h8.9v4.5h-38.6v-3h-1.6ZM368.2,157.4c1.5-4.5,3-13.4,3-25.3s0-20.8-3-25.3c-1.5-4.5-4.5-7.4-7.4-7.4s-7.4,1.5-8.9,5.9c0,1.5-3,3-3,5.9v49l3,3c3,1.5,4.5,3,7.4,3,4.5,0,7.4-3,8.9-7.4h0v-1.5h0Z"/>
            <path class="cls-1" d="M427.7,164.8c-4.5-3-7.4-5.9-10.4-8.9-3-4.5-3-8.9-3-13.4v-43.1h-10.4v-3h10.4v-7.4c0-8.9,4.5-13.4,11.9-13.4h10.4v19.3h19.3v3h-19.3v43.1c0,8.9,0,14.9,3,17.8,0,3,4.5,4.5,7.4,4.5s5.9-1.5,8.9-4.5,4.5-7.4,4.5-13.4h3c0,7.4,0,11.9-4.5,16.3-4.5,4.5-7.4,5.9-13.4,5.9s-11.9,0-16.3-3h-1.5v.2Z"/>
            <path class="cls-1" d="M473.7,163.3s-4.5-5.9-3-13.4c0-7.4,5.9-11.9,7.4-13.4,10.4-4.5,26.8-4.5,37.2-7.4v-10.4c0-8.9,0-11.9-8.9-17.8-3-3-8.9-3-13.4-1.5v14.9c0,5-1.5,7.4-4.5,7.4-4.5,0-8.9,0-10.4-5.9-8.9-20.8,31.2-23.8,43.1-14.9,23.8,11.9,14.9,41.6,16.3,62.4,0,3,11.9,0,8.9,4.5h-17.8c-5.9-1.5-7.4-4.5-10.4-7.4,0,0-3,4.5-8.9,7.4-8.9,4.5-25.3,3-31.2-3h-3l-1.5-1.5h0ZM513.9,151.4v-17.8c-7.4,0-13.4,3-20.8,4.5-4.5,3-5.9,7.4-4.5,10.4,0,0,1.5,3,3,4.5,3.9,4.9,6.4,7.9,7.4,8.9,4.5,3,11.9-3,14.9-5.9v-4.5h0Z"/>
            <path class="cls-1" d="M554,164.8h8.9v-92.2h-8.9v-4.5h17.8c8.9,0,13.4,4.5,13.4,13.4v22.3c0-1.5,3-3,4.5-4.5,4.5-3,8.9-4.5,13.4-4.5s10.4,0,13.4,3,7.4,4.5,10.4,8.9c3,3,3,7.4,3,11.9v44.6h8.9v4.5h-17.8c-8.9,0-13.4-4.5-13.4-11.9v-37.2c0-5.9,0-10.4-3-13.4s-4.5-4.5-7.4-4.5-7.4,1.5-8.9,5.9c0,1.5-3,3-3,5.9v52h8.9v4.5h-38.6v-4.5h-1.5v.3Z"/>
            <path class="cls-1" d="M253.8,81.6v-3c-3,0-5.9-3-8.9-4.5-3,0-4.5-4.5-5.9-5.9h-16.3v4.5h8.9v92.2h-8.9v3h38.6v-4.5h-8.9v-81.7h1.5-.1Z"/>
            <path class="cls-2" d="M188.4,59.3c-3,3-5.9,5.9-10.4,4.5-10.4-3,5.9-22.3,8.9-25.3,14.9-14.9,46.1-34.2,60.9-8.9,5.9,10.4,5.9,29.7,16.3,28.2,16.3,0,60.9-26.8,78.8-32.7,43.1-16.3,81.7-8.9,123.4,8.9,43.1,19.3,62.4,32.7,110,17.8,5.9,0,3,0,10.4-3-4.5,5.9-5.9,5.9-11.9,8.9-55,31.2-98.1-7.4-151.6-17.8-43.1-7.4-72.8,7.4-111.5,23.8-16.3,7.4-49,20.8-63.9,7.4-10.4-8.9-8.9-20.8-13.4-31.2-4.5-14.9-22.3-5.9-31.2,0-8.9,5.9-16.3,10.4-22.3,19.3h8.9-1.5.1ZM179.4,59.3h0Z"/>
            <path class="cls-1" d="M603,196c-5.9,0-10.4-4.5-10.4-10.4s4.5-10.4,10.4-10.4,10.4,4.5,10.4,10.4-4.5,10.4-10.4,10.4Z"/>
            <path class="cls-2" d="M108.1,57.8v3c3,3,10.4,0,14.9,0-5.9,5.9-14.9,14.9-7.4,19.3,8.9,5.9,35.7-14.9,41.6-22.3,5.9-7.4,16.3-17.8,8.9-26.8-7.4-10.4-25.3-7.4-35.7-3-22.3,7.4-52,32.7-58,58v5.9c0-3,0,0,3-3,8.9-17.8,20.8-29.7,37.2-40.1,8.9-5.9,29.7-14.9,38.6-10.4,1.5,0,3,0,3,3-3,8.9-20.8,23.8-31.2,29.7h0c3-3,10.4-10.4,5.9-13.4-3-3-11.9,3-16.3,3h-5.9v-3h1.5,0ZM130.4,51.8h0ZM121.5,71.1h0Z"/>
            <path class="cls-1" d="M277.5,83h0c3,3,4.5,3,7.4,3s5.9,0,7.4-3c3-3,3-4.5,3-5.9-5.9,1.5-11.9,4.5-17.8,4.5h0v1.5h0Z"/>
          </g>
          <path class="cls-1" d="M540.6,133.6"/>
        </g>
      </g>
    </g>
  </g>
</svg>