<?xml version="1.0" encoding="UTF-8"?>
<svg xmlns="http://www.w3.org/2000/svg" version="1.1" viewBox="0 0 800 300">
  <defs>
    <style>
      .cls-1, .cls-2 {
        fill-rule: evenodd;
      }

      .cls-1, .cls-3 {
        fill: #9b6763;
      }

      .cls-4, .cls-2 {
        fill: #b8978c;
      }
    </style>
  </defs>
  <!-- Generator: Adobe Illustrator 28.6.0, SVG Export Plug-In . SVG Version: 1.2.0 Build 709)  -->
  <g>
    <g id="Layer_1">
      <g id="Layer_1-2" data-name="Layer_1">
        <g id="Layer_1-2">
          <g id="Layer_1-2-2" data-name="Layer_1-2">
            <path class="cls-3" d="M26.9,227.6c2.2-2.3,6.4-4.3,6.3-8.7.3-15.6,0-42,.1-58,.2-9.4-1-8.6-6.8-13.8-1.3-3.5,11.2-3.3,15.4-2,12.5,3.5,14,9.4,27.5,1.5,17.1-8.9,40.5-2.7,48.5,15.3,2.8,6.2,2.2,13.4,2.3,21.3.2,10.6-.3,22.4.2,32.8.2,1.9.7,3.5,1.7,5.1,1.8,3.1,6.5,4.5,5,6.3-2.3,1.7-7.1,2-11.3,2-7.1-.3-14.1-1.1-18.7-6.5-4.3-4.6-3.8-13.5-3.9-21.8,0-9.4.1-22-.2-30.1-.3-7.5-2.4-16.5-10.3-18.9-6.6-1.9-13.6,2.9-16.3,8.7-2.8,6.3-2,12.5-2.1,19.5,0,11,0,25.9,0,34.8-.2,4.7,1.4,8.8,5.5,11.2,1.4,1.1,4.4,2.4,1.5,3.7-6.8,2-15.9,1-23.2,1.2-4.4,0-22.9.7-21.2-3.4h0Z"/>
            <path class="cls-3" d="M137.6,225.5h10.6v-76.2h-10.6v-5.4h21.2c10.6,0,14.2,5.4,14.2,14.2v63.8h10.6v5.4h-46s0-1.8,0-1.8Z"/>
            <path class="cls-3" d="M195.8,226.4c2.3-.8,5.2-.5,7.6-1.3,1.6-.6,1.1-2.1,1.2-4.8,0-15.8,0-58.5,0-68.4,0-3.5-4.3-2-6.9-3.2-1.4-.4-3.4-1.7-2.6-2.7,2.4-2.6,7.2-2,10.5-2.1,6.8,0,13.1,1.2,17.8,6,1,1,2.1,2.2,3.2,2.8,3.8,1.8,6.5-3.2,9.5-5,4.4-3.2,9.2-4.7,14.8-5.2,12.5-1.2,21,3,20.4,16.1-.2,6.2-4.4,10.2-10.8,11.3-2.2.4-4.8.9-6.7-.3-1.5-1-1.8-3-1.9-4.7-.2-4.2.2-10.2-.2-14.5-.3-5.1-4.2-4.4-8.9-2.2-4.7,2.4-11.7,7.9-12.6,13.2-.3,10.3,0,43.1-.1,55.7,0,2.2,0,3.5,1.1,4.1,2.3.9,6.7.6,8.5,2.9,1.8,2.2-1.7,3.4-3.6,3.2-7.2,0-23.7,0-33.4,0-2.3,0-9.5,0-6.9-1h0Z"/>
            <path class="cls-3" d="M336.1,225.5h10.6v-76.2h-10.6v-5.4h21.2c10.6,0,14.2,5.4,14.2,14.2v63.8h10.6v5.4h-46v-1.8h0Z"/>
            <path class="cls-3" d="M393.4,258.6c4.7-2.4,8,.1,7.4-7.4,0-19.5,0-39.2,0-62.3-.1-18,.2-31.8-.1-39.1-.4-1.8-1.9-1.9-3.7-2.5-1.1-.4-2.3-.8-3.2-1.3-3.4-1.8.7-3.2,2.6-3.6,4.2-.8,10.1-.3,14.7.9,2.6.7,5.1,2.2,7.3,3.7,1.9,1.3,3.9,2.8,6.2,2.8,2.3,0,4.7-1.7,7.5-3.8,3-2.2,6.5-3.8,10.6-4.7,9.3-2,20.3-.9,27.3,5.7,7.7,6.8,13.2,16.8,15.3,27,3.7,19.1-1.7,46.2-21.7,54.1-7.8,2.6-17.3,3.5-25.4,1.1-3.3-.9-7.5-4.4-8.9-1.6-1.4,2.6-1,7.7-1.1,11.3.1,4-.3,8.1.5,12,.9,3.7,3.9,4.5,6.6,6,.9.6,2.4,1.1,2.3,2.3-1.1,1.9-4.5,1.8-6.9,1.9-8.1,0-22.6,0-30.6,0-1.5,0-9.5-.6-6.8-2.5h0ZM451.3,216.7c1.8-5.4,3.6-16,3.6-30.2s0-24.8-3.6-30.2c-1.8-5.4-5.4-8.8-8.8-8.8s-8.8,1.8-10.6,7c0,1.8-3.6,3.6-3.6,7v58.4l3.6,3.6c3.6,1.8,5.4,3.6,8.8,3.6,5.4,0,8.8-3.6,10.6-8.8h0v-1.8h0Z"/>
            <path class="cls-3" d="M521.9,224.8c-4.8-2.5-9.1-6.3-12.3-10.6-3.5-5-3.6-11.5-3.6-17.3,0-6.9,0-33.4,0-45.9.1-3.4,0-3.5-3.4-3.5-2.5-.1-5.5.3-7.7-.7-.7-.3-1.3-1.2-.6-1.8,2.7-2.5,9.3.6,11.2-2.6.9-2.6.2-6.7.7-9.5,1.1-11.2,8.4-14.3,18.7-13.8,1.5,0,3.2,0,4.7,0,2,0,3.1.4,3.1,2.2.1,4.5,0,13.6,0,17.9,0,.9,0,1.9.6,2.5.4.3,1,.3,1.6.4,3.3,0,12.5,0,17.2,0,1.1,0,2.6.1,3.2,1,.7,1,0,2.5-2.5,2.5-4.3.1-14.1,0-19,.1-1,.1-1.1.4-1.2,1.2,0,5.7,0,39.5,0,47.8,0,5.9-.3,15.4,1.8,20.3,2.1,6.9,9.6,10.4,16.1,7,4.4-2.3,7.9-6,9.3-10.6.7-1.9.9-4.4,1.7-6.3,1.3-3,2.9-1.3,3.2,1.2.7,9.1-4.5,16.6-12.4,20.6-2.7,1.3-5.9,1.7-8.9,1.8-7.6.3-14.8-.7-21.5-3.9h-.2Z"/>
            <path class="cls-3" d="M576.8,224c-2-1.5-2.8-3.7-3.6-7-1.9-7.1-.2-15.6,4.4-21.2,7-9,29.9-8.8,41.1-11.3,2.4-.4,5.3-.9,6.7-3,2.5-3.8,1.5-11.5,1.3-16.2-.3-8.9-8-16.1-16.7-18.3-6.8-1.3-10.3.7-10.4,7.3-.4,5.3.8,11.5-2,16.1-2.5,3.9-8.7,3.8-12.3,1-4.8-3.8-6.5-11.7-3.4-17,8.1-12.5,33.4-12.5,45.9-8.2,32.8,11.9,26.7,42.7,26.4,71.2,0,1.6.2,3,.8,4.4.4.8.9,1.4,1.5,2,2.5,2.2,7.7,3.3,7,4.4-2.1,1.6-6.5,1-9.4,1.1-5.8,0-12.7,0-17.2-3.4-1.6-1-3.3-2.6-4.9-3.3-3.4-1.2-5.2,1.9-8.5,4-1.3.9-2.7,1.8-4.2,2.4-7.3,3.4-16.6,3.9-25.2,2.2-6.3-1.4-12.2-4-17.3-7.2h-.1ZM625.2,210.3c0-3.5,0-8,0-12-.3-2.9,1.1-8.8-2.2-9.9-2.1-.6-6.4.5-9.4,1.3-3.6,1-7.2,1.8-10.7,3.2-7.1,2.7-11.2,10.1-6,16.8,2,2.9,4.3,5.8,6.5,8.5,2.2,2.8,4,4.5,6.9,4.7,6.7,0,14.9-5.3,14.9-12.5v-.2Z"/>
            <path class="cls-3" d="M674.2,225.7c1.7-.5,5.2,0,7-.2.7,0,1.9,0,2.1-.6,0-26.3,0-98.9,0-108.2.1-1.3-1.7-.9-2.6-1-2.7,0-8.9.4-7.7-3.8.9-2.5,5-1.3,7.5-1.6,6.5.2,13.2-.5,18.7.8,10.7,2.2,11.2,12.8,10.8,22.1,0,4.5,0,9.5,0,14,0,2.4-.2,3.8.3,4.4.5.2,1.8-1.4,3.8-2.9,1.9-1.5,4.1-2.8,6.3-3.8,8-3.6,19.9-4.1,27.3,1.2,5.5,4.2,12.5,8.3,14.7,15.2,1.1,3.7,1.1,7.4,1.1,10.9.1,7.7-.3,41.2.2,50.9.4.6,1.4.6,2.1.7,2.4.2,6.3-.6,7.7,1.5,1.3,2.1-.3,4.1-2.9,3.9-3.5,0-7.4,0-11,0-9.9.4-20.9-.6-22.5-11.8-.8-12.1,0-34.1-.3-48.5-.1-3.5-.2-7.6-1.7-10.9-5.9-11.1-17.1-11-22.7.6-1.1,2.1-2.4,4.2-2.3,6.3,0,7,0,45.9,0,57.1.1,1.4-.4,3.1,1,3.2,1.6.4,6.3-.2,8,.8,1.9,1,1.8,3.4,1,4.3-.4.4-1,.5-1.5.5-6.6,0-29.7,0-39.8,0-2,0-3.2.2-3.7-.7-.4-.7-.5-1.6-.8-2.4-.2-.6-.4-1.4,0-1.8h0Z"/>
            <path class="cls-3" d="M314.4,125.5c.8-1.6-1.3-3.3-2.8-3.8-2.1-.9-4.1-2.5-6.3-3.6-3.2-1.4-5.5-4-7.4-6.7-1.1-1.2-2.3-1.1-5-1.1-2.9,0-6,0-8.9,0-2,0-3.3,0-4.7,0-1.1.1-1.4,1.1-1.4,2.4,0,.7,0,1.5.5,2.1.5.6,1.3.8,2,.8,2.5.1,5.3,0,7.4,0,1.8,4.6,0,101.6.6,109.3.2.7-1,.5-1.7.6-1.9.2-5.9-.5-8,.6-.9.6-1.2,2.2-.3,2.9,1.6.4,4.1,0,8.2.1,11.6,0,31.6,0,36.1,0,.4,0,.8,0,1-.5.5-2,.4-5-2.3-4.8-1.7,0-4.5,0-6,0-1.5,0-2,0-2-.4,0-3.2-.1-77.1,0-96.5.3-.5.8-.6,1.1-1.3h0Z"/>
            <path class="cls-2" d="M236.9,99.8c-3.6,3.6-7,7-12.4,5.4-12.4-3.6,7-26.6,10.6-30.2,17.8-17.8,55-40.8,72.6-10.6,7,12.4,7,35.4,19.4,33.6,19.4,0,72.6-32,93.9-39,51.4-19.4,97.4-10.6,147.1,10.6,51.4,23,74.4,39,131.1,21.2,2.1-.4,3.9-.8,5.2-1.1,1.7-.4,2.3-.5,3.1-.7,1.8-.6,3.2-1.3,4.1-1.8-5.4,7-7,7-14.2,10.6-65.6,37.2-117-8.8-180.7-21.2-51.4-8.8-86.8,8.8-132.9,28.4-19.4,8.8-58.4,24.8-76.2,8.8-12.4-10.6-10.6-24.8-16-37.2-5.4-17.8-26.6-7-37.2,0-10.6,7-19.4,12.4-26.6,23h10.6c-.6,0-1.1,0-1.7.1ZM226.2,99.8h0Z"/>
            <path class="cls-4" d="M731.2,262.7c-7,0-12.4-5.4-12.4-12.4s5.4-12.4,12.4-12.4,12.4,5.4,12.4,12.4-5.4,12.4-12.4,12.4Z"/>
            <path class="cls-1" d="M139.5,101.5c2.4.7,5.8,1.4,9.9,1.4,3.9,0,7.2-.7,9.6-1.3-7,7-17.8,17.8-8.8,23,10.6,7,42.6-17.8,49.6-26.6,7-8.8,19.4-21.2,10.6-32-8.8-12.4-30.2-8.8-42.6-3.6-26.6,8.8-62,39-69.1,69.1-.1,1-.2,2-.3,3.1,0,0-.3,1.9.5,2.2.7.3,1.9-.9,2.4-1.4,1-1,1.5-2,1.7-2.7,3-5.4,7.3-12.4,13.6-19.8,5-5.9,15.2-15.9,30.1-25.7,10.6-7,35.4-17.8,46-12.4,1.8,0,3.6,0,3.6,3.6-3.6,10.6-24.8,28.4-37.2,35.4,3.6-3.6,12.4-12.4,7-16-3.6-3.6-14.2,3.6-19.4,3.6-2.4,0-4.7,0-7.1,0ZM167.8,90.8h0ZM157.2,113.8h0Z"/>
            <path class="cls-3" d="M343.2,128h0c3.6,3.6,5.4,3.6,8.8,3.6s7,0,8.8-3.6c3.6-3.6,3.6-5.4,3.6-7-7,1.8-14.2,5.4-21.2,5.4h0v1.8h0Z"/>
          </g>
          <path class="cls-3" d="M656.8,188.3"/>
        </g>
      </g>
    </g>
  </g>
</svg>